<?xml version="1.0" encoding="UTF-8"?> <svg xmlns="http://www.w3.org/2000/svg" id="Layer_1" data-name="Layer 1" viewBox="0 0 512 512"><defs><style>.cls-1{fill:#231f20;}</style></defs><title>weddings-rings-glyph</title><path class="cls-1" d="M512,313.6C512,423.17,423.17,512,313.6,512S115.2,423.17,115.2,313.6c0-84.17,52.43-156,126.4-184.87a82,82,0,0,1,38.83,69.14,120.4,120.4,0,1,0,144.44,69.6,235.74,235.74,0,0,0,6-113.86A198.09,198.09,0,0,1,512,313.6ZM198.4,77.94a120.41,120.41,0,0,1,33.17,236.18,82,82,0,0,0,38.87,69.13C344.38,354.42,396.8,282.55,396.8,198.4,396.8,88.83,308,0,198.4,0S0,88.83,0,198.4a198.09,198.09,0,0,0,81.09,160,236.79,236.79,0,0,1,6-113.95A120.44,120.44,0,0,1,198.4,77.94Z"></path></svg> 