<?xml version="1.0" encoding="UTF-8"?> <svg xmlns="http://www.w3.org/2000/svg" viewBox="0 0 212.4 173.13"><defs><style>.cls-1,.cls-3{fill-rule:evenodd;}.cls-2,.cls-3{fill:#ffed00;}</style></defs><title>jd</title><g id="Layer_2" data-name="Layer 2"><g id="Layer_3" data-name="Layer 3"><path class="cls-1" d="M203.4,97.79A11.3,11.3,0,0,0,200.34,99c1.86-5.62,2.79-11.33,1.5-17.17-.57-2.59-.47-5.38-2.37-8.11h0A6.66,6.66,0,0,0,201,73c4.3-1.66,5.09-1.94,8.67-6.77l-.17-.1-.14.18c-.61.28-.92.91-1.57,1.39a14,14,0,0,1-5.07,2.43c-3.81.48-9.34-.46-11.85-4.47-1.07-1.7-.78-3.31-.92-5.23,1.93-2.83,3.52-4.15,6.17-3.84,2.81.34,5.34,3,3.76,5.36-.07.74-.92,1.32-1.5,2-1.09.09-2.09.52-3.29.11A14.76,14.76,0,0,1,194,62.9l-.42.53c2,5.48,9,4.46,13.11-1a2.73,2.73,0,0,1,0-.28l-.34-.2a3.36,3.36,0,0,1-3,1.6,7.16,7.16,0,0,0,.79-6.79c-.8-2.25-4.57-5.9-7.43-5.73a2.93,2.93,0,0,1-2.54-1.52c-2.13-3.05,0-5.34,1.14-9.18,2.41-8,3.85-14.66,1.16-21.36-.9-2.24-2.76-5.81-6.4-6.41l-.28.36c.58.53.93.92.67,1.69a2,2,0,0,1-.52,1c-.94.24-1.26.65-2.34.16-.73,0-1-.6-1.39-1.08.2-2,.69-2.07,2.43-3.48,9.47-.31,12.06,10.51,13.75,15.46l.28-.36c-.14-1.63.43-3.46.51-5.14.2-4.72-2.43-8.73-5.55-12.64-1.73-2.17-5.54-4.35-8.29-3.65a27,27,0,0,0-2.09-3.06c-2.49-2.57-7.33-2-9.53-.76-1.28.74-1.91,2-2.77,3.28-3.75-1.22-8.28-1.41-12.14-1.53a22.12,22.12,0,0,1-3.46,0l-.28.36.17.1c1-.08,1.8.48,2.91.7,5.74,1.12,11.67,3.89,17.65,5.59l.14-.18c-.84-.6-1.51-1.34-1.21-2.27-.06-.8.75-1.59,1.48-2.24a6.46,6.46,0,0,0,1.55-.11c2,1.08,3.5,2.27,2.83,4,0,1.29-1.55,2.17-2.5,2.93-5.5.19-9.59-2.5-15.22-3.63-11.67-2.33-23.49-4.73-34.38-.52-3,1.16-6.33,1.59-9.1,4.44l.34.2c3.37-2.7,9.6-3.41,13.43-3.67,9.62-.65,20-.24,30.22,4l-.14.18c-6.42.4-12.58,10.82-8.07,14.64A8.34,8.34,0,0,1,158,28.42c-3-.25-6.2-.61-9-1.12-.59-1.13-.76-2.53-1.54-3.57l-.28.36q.17,1.46.34,2.93c-1.15-.24-2.24-.5-3.22-.8-6.88-2.09-11.49-9.33-27.7-11a88.42,88.42,0,0,1,8.56-2.71A46.56,46.56,0,0,0,113.68,15a95.16,95.16,0,0,0-16.51.71,69,69,0,0,1,12.54.77,69.6,69.6,0,0,0-16.21,9.43,4.71,4.71,0,0,1-.76-3.32A83.56,83.56,0,0,1,107.86,17a54.92,54.92,0,0,0-14.69,3.86A14.93,14.93,0,0,1,96,16.42a16.43,16.43,0,0,0-6.46,6A79,79,0,0,0,76.11,30.3c-2.42-3.65,3.08-8.87,3.08-8.87-6.65,3.62-8.48,8-8.42,11.31a13.1,13.1,0,0,1-.78,4c-1.5,2.24-4.74,5.86-11.65,10.68,0-.48-.09-.92-.15-1.28l-.64-1.57c6.16-4.69,6.18-9.2,6.18-9.2,1.77-13.31,21.85-20.56,21.85-20.56A84.72,84.72,0,0,0,72,19.76c-3.75-1-6.93-.05-10.11.19-12.5,1-22.44,8.62-32.28,16.14-4.74,3.63-7.21,8-12.51,10.36-1.29-.28-3.23-.4-3.89-1.63-1.55-1.35-.78-3.14.59-5.09a6.54,6.54,0,0,0,1.53-.61c1,.28,2.21.66,2.56,1.44.78.74.53,1.75,0,2.7l.22.11C22.89,39,27.07,33.72,31.92,30c.94-.71,1.36-1.58,2.39-2a1.23,1.23,0,0,1,.12-.17L34,27.67a23,23,0,0,1-3.29,1.57c-3.6,1.88-7.79,4.12-10.7,7-1.46-.79-2.73-1.73-4.33-1.85-2.75-.2-7.6,1.49-8.63,5.06a28.18,28.18,0,0,0-.38,3.85c-3,.59-5.45,4.38-6,7.23C-.22,55.63-.63,60.63,2,65c1,1.56,2.44,3,3.16,4.64l.45.21C4.65,64.4,1.47,53,10.6,49c2.39.54,2.88.37,4.11,2.19-.15.65,0,1.35-.74,1.65-.77,1-1.29.71-2.3.91-.55-.28-.81-.41-1-.7-.65-.62-.52-1.14-.25-1.9L10,50.9c-3.14,2.22-3,6.45-2.73,9C8.18,67.45,13,73.09,19.44,79.58c3.09,3.11,6.28,4.31,5.86,8.16a2.88,2.88,0,0,1-1.61,2.59c-2.8,1.13-4.46,6.3-4.06,8.8a8.05,8.05,0,0,0,4.28,6.06,3.72,3.72,0,0,1-3.64-.16c-.08.11-.15.22-.22.35l.11.27c6.72,3.31,13.89,1.09,12.94-5l-.67-.32A16.24,16.24,0,0,1,32,101.9c-.93.94-2.09,1-3.18,1.4-.89-.34-2-.5-2.44-1.17-2.71-1.51-1.71-5.19.78-6.79s4.53-1,7.84.84c.87,1.87,2,3.26,1.85,5.36-.29,4.93-5,8.35-8.89,9.62a15.36,15.36,0,0,1-6.06,0,13.93,13.93,0,0,0-2.22-.6l-.23-.11-.1.17c5.9,2.94,6.8,2.85,11.73,2.46a7.08,7.08,0,0,0,1.76-.06A41.07,41.07,0,0,1,37,111.45c-.21,8.76,8.11,10.37,14.6,17.24A12.36,12.36,0,0,1,55,139c-.28,2.58-1.46,6-4,8-1.56-.89-3.05-1.83-4.51-2.78-1.07-.71-2.35-1.6-3.62-2.62l2.3-.74c.74,0,1.49.23,2.2.16a5.16,5.16,0,0,1,1.9,1.58c-.09.33-.21.64-.31,1l.67.32c3.27-3.11,2.41-7.23.28-10.15L47,131l-1.56-.75-.1.18c2.49,2.74,1.68,3.87,2.42,6.74-.91.44-4.51-.09-6.06.46a7.32,7.32,0,0,0-1.92,1,10.83,10.83,0,0,1-2.27-3.73h-.4a9.74,9.74,0,0,0,1.94,4.34c-2.81,2.68-3.66,7.31-1.7,9.92,1.4,1.85,5.28,3.17,7.44,3.32a15.28,15.28,0,0,0,7.72-1.17c5.55,3,12,5,18.36,7,5.34,1.66,10.34,1.32,14.78,4,.34,1.07,1.11,2.52.34,3.59-.48,1.77-2.4,2.07-4.73,2a6,6,0,0,0-1.23-.81,3,3,0,0,1,.1-2.53c.29-.91,1.29-1.21,2.35-1.33,0-.07,0-.15,0-.21-6-1.35-12.54-1.8-18-3.52-1.05-.33-2-.22-2.83-.77h-.2c0,.14,0,.28,0,.42a18.49,18.49,0,0,1,2.86,1.61c3.28,1.69,7.16,3.62,11,4.34,0,1.43-.27,2.8.35,4,1.07,2.07,4.77,4.75,8.37,3.78a32.59,32.59,0,0,0,3.54-1.57c1.88,1.85,6.33,1.81,9,.81,4.92-1.81,9.49-3.92,12.12-7.93.94-1.43,1.54-3.21,2.63-4.51,0-.15,0-.29,0-.42-4.34,3.32-12.91,11.11-20.59,6.48-.61-2-1-2.25,0-4,.63-.2,1.21-.62,1.79-.26,1.19.09,1.21.59,1.85,1.21a1.92,1.92,0,0,1-.16,1.06c-.25.76-.77.92-1.57,1.09,0,.14,0,.28,0,.43,3.38,1.19,7-.91,9.13-2.36,6.21-4.32,9-10.51,11.72-18.27,1.32-3.72.92-6.59,4.5-8.15a3.19,3.19,0,0,1,3-.08c1.6,1,4.7.7,7.09-.12.37.38.79.77,1.25,1.23l.13-.13-.15-.14a3.63,3.63,0,0,0-.76-1.12,8.31,8.31,0,0,0,2-1,10.44,10.44,0,0,0,1.5-1.35,12.32,12.32,0,0,0,1.64,1.93l.28,0c.09-.09.18-.17.26-.26a2.81,2.81,0,0,1-1.07-2.86,8.16,8.16,0,0,0,6.63,2c2.39-.28,6.7-2.85,7-5.36.09-1,1.16-1.61,2-1.91,3.42-1.28,5.32,1,8.95,2.7,7.55,3.56,13.92,6.05,21.09,5,2.4-.36,6.3-1.31,7.54-4.34l-.31-.31c-.64.4-1.08.63-1.81.27a2.23,2.23,0,0,1-.9-.64c-.07-.85-.43-1.21.26-2.05.1-.63.77-.72,1.33-1,2,.54,1.94,1,3,2.75-1.39,8.25-12.64,8.46-17.88,9l.31.3c1.65.19,3.37,1,5,1.39,4.67,1.06,9.15-.47,13.61-2.44,2.47-1.09,5.32-4,5.11-6.49a28.25,28.25,0,0,0,3.42-1.23c3-1.68,3.33-6,2.46-8.09-.51-1.25-1.68-2-2.77-3a24.17,24.17,0,0,0,2.41-5.5,13.72,13.72,0,0,0,7.77-2.11c1.73-1,4.37-3.66,4.69-5.76C212.92,102,208.23,97.29,203.4,97.79ZM199,73.73c1.86,3.44,1.48,8.69,1.07,11.93a66.18,66.18,0,0,1-2.61,12.17,6.05,6.05,0,0,1-.37-4.6l-.17-.11-1,1.24c-.39,1.15-.77,2.31-1.17,3.45a8.58,8.58,0,0,0,.75,5q-.65,1.45-1.42,2.87a14.91,14.91,0,0,1-1.1-1.39,11.47,11.47,0,0,1-1.93-10c2.26-8.35,8.47-13,4.27-20.28A24.5,24.5,0,0,1,199,73.73ZM182.37,108l-.13.13c.32,1.05,0,1.59-1.06,2.54-.8-.05-1.62,0-2.41-.06l-1.38-1.36c-.09-.77-.48-1.18-.15-2,0,0,0,0,0,0a11.17,11.17,0,0,0,2.63.94,8.62,8.62,0,0,1,2.41-3.15,4,4,0,0,1,.86.4c2.46,1.53,2.62,4.56,2.74,6,0,.28,0,.57,0,.87l-.18.09a5.18,5.18,0,0,1-1.86.37A5.79,5.79,0,0,0,182.37,108Zm9.41-54.66a3.06,3.06,0,0,0-1,.68.8.8,0,0,1-.17-.11c-.28-2.18-2.7-2.64-3.33-4.31,1-.09,1.75-.73,2.78-.41C190,50.63,192.07,51.89,191.78,53.31ZM55,51.26c-.44.8-.94,1.62-1.5,2.47-.55-.34-1-.78-1.62-1.19C52.76,52.19,53.81,51.76,55,51.26Zm3-28.27c3.39-1.35,8.81-3.23,13.22-2.85-15.61,7.75-14,16.43-18.74,21A37.93,37.93,0,0,1,46,45.92c-2.8-4-9.85-7.09-14.35-5.27l-.22-.12C38.85,31.9,48.5,26.76,57.94,23ZM32,80.66c-10.77-5.05-16.45-12.39-15-19.89s9.31-14.08,15.31-15.28c1.76-.36,5.32-1.16,7.84.82a4.93,4.93,0,0,1,1.5,2.07c-2.31,1.25-4.56,2.37-6.39,3.25-.18-.55-.35-1.12-.56-1.66.77-1.36,1.3-1.87,2.61-1.88a1.25,1.25,0,0,1,.11-.17C31.27,45,22,53.35,20.79,59.41c-.7,3.42-.47,7.34,1.37,10.28l2.47,3,.67.32c0-1.08-1-2-1.25-3.07-.75-3.27-.17-9.38,4.56-11.47,1.84-.81,3.83-.55,5.94-.75,4,1.78,3.92,3.74,1.87,6.71-2.06.43-3.1,1.09-4.76-1.16a7.62,7.62,0,0,1,1.06-2.18c-2.52-.77-5.28,1.54-5.77,4.18a11.72,11.72,0,0,0,3.35,9.87c1.41,1.3,3.66,2.41,5.22,1.81l.22.11.11-.17c-.46-.07-.24-.07-.56,0-3.32-1.67.31-3.72,1.93-4a6.19,6.19,0,0,1,3,2.56C39,81,37,80.25,32,80.66ZM41.48,51.6a2.68,2.68,0,0,1-1.6,1.25c-.8.58-1.39.31-2.31.47l-1.24-.59Q39.08,52.21,41.48,51.6ZM31,53.3c-.26.43-1.62.43-2.41,1.09,0-.73,1.1-1.16,1.74-1.86C30.71,52.87,30.79,52.94,31,53.3Zm12,95.22c-1.75-1-1.72-1.85-2.47-3a9.39,9.39,0,0,1,1.4-2.87l.13.16a28.09,28.09,0,0,0,5.71,5.53C46.3,148.6,44.8,148.41,43,148.52Zm12.49.84a14.71,14.71,0,0,0,2.58-3.27c3,1.44,5.19,2.3,7.53,2.25a11.18,11.18,0,0,0,5.14-1.51c-.11,3.13.92,6.31,3.24,7.8,0,.07,0,.15,0,.22A55.43,55.43,0,0,1,55.49,149.36Zm42.77,6.08c-7.33,2.57-16.59.07-20.38-3.67-1.12-1.09-3.43-3.27-2.84-6,.32-1.48,1.36-2.19,2.08-3.22,1.3-.24,2.94-.51,3.82.31.87.3.9.85,1.46,1.44,0,.63.05,1.27.07,1.9-.55.58-1.18,1.13-1.74,1.73-1.55.1-2.23,0-2.84-1h-.2c.27,5.88,11.8,8.51,17.69,6.48,3.32-1.14,6.65-3.19,8.39-5.94.48-1.06,1-2.14,1.47-3.2,0-.22,0-.42,0-.64-1,.53-1.32,1.72-2.12,2.38-2.54,2.12-8.16,4.64-12.14,2.24-1.55-.94-2.23-2.49-3.35-3.92-.28-3.76,1.49-4.62,5-4.57,1.32,1.28,2.37,1.7,1.15,4a8.76,8.76,0,0,1-2.4.28c.47,2.19,3.76,3.06,6.3,2.14a12.4,12.4,0,0,0,7.14-7.16c.5-1.64.45-3.8-.78-4.61,0-.07,0-.15,0-.22h-.21c.14.37,0,.21.22.42,0,3.2-3.4,1.58-4.38.55a5.1,5.1,0,0,1,.87-3.41c5.5-1.8,5.74,0,8.35,3.36C109.36,145.29,105.51,152.9,98.26,155.44Zm77.48-28.09c-6.5,3-14.63.24-22-7.12-.87-4-2.07-5.43,2.76-7.8a5.77,5.77,0,0,1,3.09,1.79c.15,1.35-.81,4.74-3.18,2.5,0-.26,0-.09-.17-.43l-.13.12.15.16c-.15,1.37,1.43,2.9,3,3.71a12.49,12.49,0,0,0,9.88.28c2.29-1,3.71-3.78,2.37-5.61a7.17,7.17,0,0,1-1.73,1.38c-2.48-.78-2.13-1.77-2.25-3.51a7.59,7.59,0,0,1,2-1.66,30.77,30.77,0,0,0,5,3.29,7.33,7.33,0,0,1,.37,3.15c-.72,4.26-6.18,6.21-9.36,6.4-1,.06-2.12-.52-3.12-.27l.46.45,3.34,1.26a14.61,14.61,0,0,0,16.29-8.38,14.3,14.3,0,0,0,2.32.06A18.76,18.76,0,0,1,175.74,127.35Zm15.82-4.89a2.25,2.25,0,0,1,2.48-.62c.82.09,1.45.94,2,1.7a5.25,5.25,0,0,0-.18,1.36c-1.44,1.56-2.88,2.6-4.51,1.7-1.29-.24-1.88-1.75-2.47-2.7.75-4.55,3.86-7.52,6-11.79a14,14,0,0,0,2.48,1c-1.93,3-4.14,6.05-5.93,9.18Zm15.79-15.06c-2.27.93-3.68,2.14-6.06,2.1l-.26,0,.15-.6a16.46,16.46,0,0,1,.6-3l-.32-.3a.84.84,0,0,1-.12.12c-.1.92-.81,1.47-1.22,2.39-.17.38-.37.76-.57,1.15a9.58,9.58,0,0,1-2.81-1.28c.38-.86.76-1.72,1.13-2.59a7.6,7.6,0,0,0,1.77.81l.41-.54c-.24-.22-.47-.44-.71-.68a4.57,4.57,0,0,1,.87-2.08c.62-.23,1.13-.76,1.77-1l2.48-.34a11.76,11.76,0,0,1,3.59,2.39C207.93,105.17,208.35,105.88,207.35,107.4Z"></path><path d="M196.45,72.26l-.07-.27a23.79,23.79,0,0,0-1.2-3.7,25.89,25.89,0,0,0-1.05-4.18,17.65,17.65,0,0,0-.79-2.51A15.82,15.82,0,0,0,192,55.47c-.19-.45-.41-.87-.62-1.27-.06-.31-.12-.62-.19-.93a15.53,15.53,0,0,0,.32-2.48,21.57,21.57,0,0,0,.33-2.84c.1-.27.19-.55.28-.85a16.7,16.7,0,0,0,.94-7.47v-.12a20.86,20.86,0,0,0,.38-3.35,27.35,27.35,0,0,0,.69-4.46.09.09,0,0,0,0,0,16.19,16.19,0,0,0,.11-4.51,17.07,17.07,0,0,0,.66-2.41A16.32,16.32,0,0,0,196,12.66,16.51,16.51,0,0,0,184.27,1.47a15.82,15.82,0,0,0-7.73-.14l-3.88.9A21,21,0,0,0,169,3c-.88.16-1.65.34-2.29.49l-.65.15a15.65,15.65,0,0,0-2.61.81,17.93,17.93,0,0,0-5.85,4,18.13,18.13,0,0,0-9.95.37l-2.75.65c-1.08.15-2,.34-2.6.47l-.09,0a15.87,15.87,0,0,0-6.31,1.82l-.32.17a15.91,15.91,0,0,0-2.05,1.3,19.31,19.31,0,0,0-2.37,2.12c-6.34.38-15.46,3-21.88,8.28a16.81,16.81,0,0,0-2.14-.65,15.51,15.51,0,0,0-6.44-.12l-.41.06a26.47,26.47,0,0,0-5.1,1.16,19.38,19.38,0,0,0-2.09.75,19.37,19.37,0,0,0-7.88,2.35A17.46,17.46,0,0,0,83.19,27a19,19,0,0,0-6,1c-1,.22-1.78.46-2.38.64l-.14,0c-.41.07-.81.16-1.21.27l-.27.05a21.58,21.58,0,0,0-9.71,4.16,20.79,20.79,0,0,0-4.06.43,15.71,15.71,0,0,0-3.74,1,19,19,0,0,0-1.87.66l-1.57.35-2,.43a16.5,16.5,0,0,0-6.76-1.46,16,16,0,0,0-2.42.18,18.18,18.18,0,0,0-4,1,23,23,0,0,0-2.71.56,21.58,21.58,0,0,0-4.1.53,15.87,15.87,0,0,0-5,1.82,17.8,17.8,0,0,0-9,14.95,15.85,15.85,0,0,0,1.13,8.62c.41.94.83,1.81,1.23,2.59A16.22,16.22,0,0,0,20.28,70a15.71,15.71,0,0,0,1.13,4.76,19.62,19.62,0,0,0,1.64,5.46c0,.17.09.34.14.51a19.48,19.48,0,0,0,.67,3.2,15.81,15.81,0,0,0,.6,1.65c.06.25.13.49.2.73.15.52.32,1,.49,1.45A24.19,24.19,0,0,0,26,92.35l.06.2c.1.46.23.91.37,1.36a16.6,16.6,0,0,0-6.08,16.89,15.83,15.83,0,0,0,1.5,5.17c0,.12,0,.23.07.35a20.87,20.87,0,0,0,1.35,6l.2.49A17.74,17.74,0,0,0,36.69,133.2a16,16,0,0,0,3,.28c.33,0,.66,0,1,0a19.66,19.66,0,0,0,8-2.26c.48-.14,1.06-.33,1.71-.58a17.42,17.42,0,0,0,2-.72,16,16,0,0,0,2.42-.84,15.81,15.81,0,0,0,1,3.6,25.7,25.7,0,0,0,.77,2.78l0,.11c.07.29.15.58.24.86a20.56,20.56,0,0,0,.82,3.48v0a15.68,15.68,0,0,0,.31,2.15,18.48,18.48,0,0,0,3.74,9.53A15.68,15.68,0,0,0,63.81,154a16.86,16.86,0,0,0,11.3,4.36h0a17.7,17.7,0,0,0,7.31-1.62,26.42,26.42,0,0,0,5.09-1.41,15.63,15.63,0,0,0,2.11-.67l.17-.07.21-.08a20.49,20.49,0,0,0,4.65-1.92,17.32,17.32,0,0,0,5.93-3.43,18.55,18.55,0,0,0,2.86-2.59,16.15,16.15,0,0,0,1.47-1.62c1.13-.26,2.29-.59,3.58-1a24.39,24.39,0,0,0,6.06-2.06,19.73,19.73,0,0,0,5.15-1.08l.08,0c.65-.18,1.31-.34,1.89-.48.83-.2,1.57-.39,2.17-.56l.52-.16c.21-.05.41-.12.62-.19l.69.12a15,15,0,0,0,1.63.38,18.71,18.71,0,0,0,6.51,1.19h0c.55,0,1.11,0,1.67-.07a15.86,15.86,0,0,0,3.49-.72,18,18,0,0,0,6.43-2l3-1.42a15.22,15.22,0,0,0,1.51-.83,18.9,18.9,0,0,0,6.37,1.14h.48A15.82,15.82,0,0,0,159,137l.47-.07a37.25,37.25,0,0,0,7.59-1.73,16.39,16.39,0,0,0,11-19.65l0-.09a21.29,21.29,0,0,0-2-5.22c0-.11-.07-.21-.11-.32l-.18-.54a17.19,17.19,0,0,0,2.29-2.23,15.89,15.89,0,0,0,3.59-5.45,19.26,19.26,0,0,0,2.58-8.57c0-.07,0-.14,0-.22a15.79,15.79,0,0,0,6.72-3.34,16.88,16.88,0,0,0,6-13.08A15.48,15.48,0,0,0,196.45,72.26Z"></path><path class="cls-2" d="M194,73.27l-.09-.34a20.81,20.81,0,0,0-1.19-3.6A24,24,0,0,0,191.65,65a15.08,15.08,0,0,0-.86-2.63,13.19,13.19,0,0,0-1.11-5.57,14.74,14.74,0,0,0-.75-1.48,13.2,13.2,0,0,0-.38-1.75A13.09,13.09,0,0,0,189,50.8a19.26,19.26,0,0,0,.34-3.09c.15-.38.29-.8.43-1.26a14.22,14.22,0,0,0,.78-6.28c0-.2,0-.39,0-.59a17.77,17.77,0,0,0,.4-3.5,24.58,24.58,0,0,0,.68-4.28c0-.06,0-.11,0-.17a13.6,13.6,0,0,0,0-4.46,14.94,14.94,0,0,0,.83-2.91,13.76,13.76,0,0,0,1.11-10.55,1,1,0,0,0,0-.15,13.75,13.75,0,0,0-10.07-9.31,13.17,13.17,0,0,0-6.2-.05l-4,.94h0a18.45,18.45,0,0,0-3.44.7c-.91.16-1.7.35-2.35.5l-.69.16a13.15,13.15,0,0,0-2.2.69,14.94,14.94,0,0,0-6,4.5,15.65,15.65,0,0,0-10.05-.08l-3,.71c-1,.14-1.89.32-2.52.46l-.29.06a13.2,13.2,0,0,0-5.34,1.47l-.33.17a13.47,13.47,0,0,0-2,1.27,16,16,0,0,0-2.55,2.47c-5.9.1-15.58,2.64-21.9,8.15-.33.16-.65.34-1,.53a13.7,13.7,0,0,0-3.11-1.1,13,13,0,0,0-5.28-.06l-.46.07a23.47,23.47,0,0,0-4.66,1.05,16.82,16.82,0,0,0-2.19.8l-.32.06a16.75,16.75,0,0,0-7.68,2.42l-.1.07A14.47,14.47,0,0,0,83.27,30a16.4,16.4,0,0,0-5.32.91c-.92.2-1.69.43-2.29.61l-.28.08a13.32,13.32,0,0,0-1.32.29l-.36.07a18.13,18.13,0,0,0-9.23,4.24c-.35,0-.7,0-1.06,0a16.73,16.73,0,0,0-3.44.38,13.07,13.07,0,0,0-3.36.91,16.15,16.15,0,0,0-1.94.69c-.56.14-1.15.27-1.88.42s-1.34.29-2.07.45l-.7.19a13.68,13.68,0,0,0-8.44-1.49,15.62,15.62,0,0,0-3.86,1,21.66,21.66,0,0,0-2.88.6,19,19,0,0,0-4,.48,13.21,13.21,0,0,0-4.3,1.56A15.27,15.27,0,0,0,19,54.16a13.15,13.15,0,0,0,.91,7.33c.45,1,.92,2,1.36,2.84A13.74,13.74,0,0,0,23,69.54a13.21,13.21,0,0,0,1.12,4.84,17.32,17.32,0,0,0,1.56,5.24c.06.28.14.57.22.85a18,18,0,0,0,.6,3A13.38,13.38,0,0,0,27.06,85c.06.29.14.58.23.87.17.58.37,1.11.56,1.58a21.43,21.43,0,0,0,.8,4.45l.09.32a12.92,12.92,0,0,0,.65,2.07c.06.31.14.62.22,1a14.09,14.09,0,0,0-6.55,15.38,13,13,0,0,0,1.43,4.76c0,.25.09.51.15.79a18,18,0,0,0,1.25,5.52l.09.21a15.12,15.12,0,0,0,11.25,9,13.26,13.26,0,0,0,2.53.24c.31,0,.62,0,.92,0a17,17,0,0,0,7-2.07c.49-.14,1.13-.34,1.85-.62a14.93,14.93,0,0,0,2-.74A13.07,13.07,0,0,0,55,126.31c.34-.15.79-.36,1.31-.63A13.56,13.56,0,0,0,57.2,128c.06.11.1.21.13.29s0,.22.06.33a13.12,13.12,0,0,0,.93,3.56,21.25,21.25,0,0,0,.74,2.74l.07.2c.09.35.19.69.3,1a17.8,17.8,0,0,0,.77,3.34c0,.12.05.25.08.36A13.41,13.41,0,0,0,60.6,142a15.81,15.81,0,0,0,3.28,8.37,13.27,13.27,0,0,0,1.81,2A14.25,14.25,0,0,0,75.2,156a15,15,0,0,0,6.51-1.51h0a24.48,24.48,0,0,0,5-1.39,13.13,13.13,0,0,0,2-.6l.3-.12.24-.1a17.73,17.73,0,0,0,4.37-1.82A14.68,14.68,0,0,0,99,147.36,15.74,15.74,0,0,0,101.6,145a13.3,13.3,0,0,0,1.87-2.19,37.3,37.3,0,0,0,4.4-1.15l.09,0a21.36,21.36,0,0,0,6-2.1,17.08,17.08,0,0,0,5.05-1l.14,0c.65-.19,1.3-.34,1.88-.48.88-.21,1.66-.41,2.29-.59l.38-.12c.43-.11.85-.24,1.27-.38.54.12,1,.2,1.39.26a13.57,13.57,0,0,0,1.74.41,15.94,15.94,0,0,0,5.83,1.11c.45,0,.92,0,1.39-.06a13.09,13.09,0,0,0,3.21-.7h0a14.74,14.74,0,0,0,5.84-1.79l3-1.4a13.2,13.2,0,0,0,2.36-1.44,15.83,15.83,0,0,0,6.71,1.49h.42a13.38,13.38,0,0,0,1.92-.14l.5-.07a35.16,35.16,0,0,0,7-1.59,13,13,0,0,0,1.76-.77,13.64,13.64,0,0,0,8-12.9,13.17,13.17,0,0,0-.39-2.8l0-.1a18.65,18.65,0,0,0-1.83-4.82l-.21-.63c-.17-.52-.34-1-.53-1.53-.07-.21-.15-.41-.24-.61l-.05-.17.13-.09a14.37,14.37,0,0,0,3.39-2.95,13.12,13.12,0,0,0,3.14-4.81,16.64,16.64,0,0,0,2.33-7.55,20,20,0,0,0,0-2c.54-.16,1-.34,1.42-.48a13.2,13.2,0,0,0,6.2-2.9,14.26,14.26,0,0,0,5.09-11A13.64,13.64,0,0,0,194,73.27Z"></path><path d="M191.38,73.71c0-.15-.08-.29-.11-.43a18.16,18.16,0,0,0-1.15-3.37c0-.07,0-.14,0-.22a21.85,21.85,0,0,0-1-4.1,12.53,12.53,0,0,0-1-2.88,10.54,10.54,0,0,0-.87-5,11.34,11.34,0,0,0-.87-1.61c0-.09,0-.17,0-.26a10.36,10.36,0,0,0-.56-2.37,10.57,10.57,0,0,0,.54-3.12,17,17,0,0,0,.33-3.3v0a12.66,12.66,0,0,0,.51-1.41,11.51,11.51,0,0,0,.69-5.49c0-.3,0-.61,0-.93a15,15,0,0,0,.41-3.63,21.3,21.3,0,0,0,.69-4.19s0-.06,0-.09a11,11,0,0,0,0-4.42c.05-.19.1-.38.15-.58a12.15,12.15,0,0,0,.87-3.12A11.1,11.1,0,0,0,191,14.37l0-.1,0-.1h0a11.1,11.1,0,0,0-8.24-7.58,10.53,10.53,0,0,0-4.91,0l-4.17,1-.18,0a16.17,16.17,0,0,0-3.11.65c-.89.15-1.67.34-2.35.49l-.72.17a10.39,10.39,0,0,0-1.75.55,12,12,0,0,0-6,5.37,13.17,13.17,0,0,0-10.33-.84l-3.26.77c-1,.12-1.78.3-2.42.43l-.51.11a10.53,10.53,0,0,0-4.56,1.24l-.32.17a10.46,10.46,0,0,0-1.4.9,13,13,0,0,0-3,3.12c-.31,0-.61,0-.94,0-5.58,0-15.2,2.44-21,7.84a10.72,10.72,0,0,0-2.09,1.34,11.18,11.18,0,0,0-3.88-1.65,10.58,10.58,0,0,0-4.09-.05l-.58.09a21.22,21.22,0,0,0-4.39,1,14.88,14.88,0,0,0-2.13.82c-.25,0-.5.07-.75.12a14.06,14.06,0,0,0-6.7,2.08,9.78,9.78,0,0,0-.83.61,11.8,11.8,0,0,0-3.13-.43,13.79,13.79,0,0,0-4.63.83c-.9.19-1.66.42-2.25.59l-.46.14a10,10,0,0,0-1.25.27l-.48.09c-1.77.33-5.88,1.1-8.76,4.43a11.87,11.87,0,0,0-2-.18,14.16,14.16,0,0,0-3,.35,10.45,10.45,0,0,0-2.86.78,14.16,14.16,0,0,0-2,.7c-.69.19-1.4.34-2.24.51l-2,.43a10.25,10.25,0,0,0-1.54.49c-.22-.12-.43-.23-.65-.33a11.08,11.08,0,0,0-7.27-1.39,12.89,12.89,0,0,0-3.45.91,19.05,19.05,0,0,0-2.8.55l-.39.12a16.7,16.7,0,0,0-3.93.45,10.49,10.49,0,0,0-3.41,1.24c-2.72,1.56-6,4.71-6.33,10.88a10.56,10.56,0,0,0,.72,6c.49,1.13,1,2.15,1.49,3.07a11.2,11.2,0,0,0,1.74,5.18c0,.2.06.3.06.32a10.54,10.54,0,0,0,1.06,4.63,14.48,14.48,0,0,0,1.5,5.1,10.14,10.14,0,0,0,.31,1.18,15.81,15.81,0,0,0,.54,2.75,10.55,10.55,0,0,0,.58,1.5,9.54,9.54,0,0,0,.24,1,16.06,16.06,0,0,0,.63,1.74,18.39,18.39,0,0,0,.76,4.39c0,.14.08.29.12.43a10.52,10.52,0,0,0,.61,1.84,12.27,12.27,0,0,0,.33,1.4,10.44,10.44,0,0,0,.65,1.65h0A11.42,11.42,0,0,0,25.59,110,10.57,10.57,0,0,0,27,114.37q.07.57.22,1.23a15.42,15.42,0,0,0,1.08,4.93l.05.13a12.48,12.48,0,0,0,9.4,7.45,10.62,10.62,0,0,0,2,.18c.22,0,.45,0,.68,0a14.36,14.36,0,0,0,6.27-1.9,20.72,20.72,0,0,0,2-.67,12.69,12.69,0,0,0,2-.75,10.58,10.58,0,0,0,3.07-1.18l.1,0a16.89,16.89,0,0,0,2.58-1.39L57,122a11,11,0,0,0,1.2-.35c.08.31.17.62.29,1a10.62,10.62,0,0,0,1.05,4,7.56,7.56,0,0,1,.33.77c0,.21.07.4.11.59a10.58,10.58,0,0,0,.86,3.2,19.06,19.06,0,0,0,.7,2.66l.09.24a9.77,9.77,0,0,0,.37,1.25,14.77,14.77,0,0,0,.75,3.29c0,.21.08.42.14.63a10.69,10.69,0,0,0,.32,2.19v0a13.22,13.22,0,0,0,2.77,7.14,10.52,10.52,0,0,0,1.44,1.59,11.6,11.6,0,0,0,7.75,3h0a12.65,12.65,0,0,0,5.68-1.41l.4-.07a21.67,21.67,0,0,0,4.72-1.32,10.85,10.85,0,0,0,1.82-.55l.11,0,.51-.2a15.09,15.09,0,0,0,4.13-1.74l.05,0a12.28,12.28,0,0,0,4.71-2.66,12.33,12.33,0,0,0,2.46-2.24,10.42,10.42,0,0,0,2.08-2.7,26.44,26.44,0,0,0,5.25-1.26l.3-.07a18.27,18.27,0,0,0,5.79-2.15,13.72,13.72,0,0,0,4.91-.86l.14-.05c.72-.21,1.46-.39,2.11-.54.82-.2,1.55-.38,2.13-.55l.49-.15a10.6,10.6,0,0,0,1.74-.59,17.64,17.64,0,0,0,2.22.45,9.8,9.8,0,0,0,1.79.41,13.41,13.41,0,0,0,5.15,1c.38,0,.77,0,1.17-.05a10.61,10.61,0,0,0,2.77-.63l.39-.07a12.33,12.33,0,0,0,4.92-1.51l3.11-1.46a10.59,10.59,0,0,0,2.92-2l.24-.21a12.61,12.61,0,0,0,7.1,2.06h.35a10.88,10.88,0,0,0,1.57-.12l.61-.09a31.43,31.43,0,0,0,6.42-1.45,12.27,12.27,0,0,0,8-11.12,10.47,10.47,0,0,0-.32-2.24l0-.11a15.72,15.72,0,0,0-1.66-4.31c-.1-.26-.2-.57-.3-.88-.17-.52-.35-1-.54-1.55-.06-.17-.13-.34-.2-.51a11.63,11.63,0,0,0-.54-1.47c0-.13-.11-.33-.18-.56l1.8-1.39a11.83,11.83,0,0,0,2.88-2.51A10.55,10.55,0,0,0,177,99.5,14,14,0,0,0,179.09,93a18.64,18.64,0,0,0-.21-4,10.86,10.86,0,0,0,2-.37c.64-.19,1.19-.39,1.62-.56a10.58,10.58,0,0,0,5.32-2.45,11.54,11.54,0,0,0,4.05-8.79A10.63,10.63,0,0,0,191.38,73.71Z"></path><path class="cls-2" d="M43.33,52.67c-.4,1.52.82,3.09,1.16,4.56.08.31,0,.51,0,.84,1.14.66,1.53,2.3,2,3.5a1.47,1.47,0,0,1-.36,1,10.07,10.07,0,0,0,.66,2.21,1.54,1.54,0,0,0,.7,2c1,.72.37,1.89.86,2.91.18.61.81.85.76,1.61a3.35,3.35,0,0,0,.28,3.16c.14.79.83,1.52.86,2.25A20.13,20.13,0,0,1,51.25,80c.8,1.1.1,2.54,1.15,3.57.38.64.09,1.23.2,1.94a7,7,0,0,1,1,3.19,7.64,7.64,0,0,1,1,3,5.28,5.28,0,0,0,.49,2.6c-.49,1.22,1.26,1.38.67,2.56a2.26,2.26,0,0,0,1.05,2.27l.89,2.07c-.86,1.24-1,2.84-1.7,4.14,0,1.5-1.45,2.73-2.34,3.91l-.79,1.14c-1.58-.22-2.69,1.1-3.92,1.71a25,25,0,0,1-2.37,1.26c-1.15-.41-1.89,1-3.11,1-1.21.69-2.71.7-3.89,1.54a4.15,4.15,0,0,1-1.89.63,2.07,2.07,0,0,1-1.66-1.18,7.53,7.53,0,0,1-.36-2.8c-.57-1,0-2-.64-3.14l-1-1.63c.18-1-1.1-2.43.46-2.88.85-.32,2.11-.53,3-1a32.79,32.79,0,0,0,4.6-2,3.13,3.13,0,0,0,.84-2.9c-1.13-1.58-.19-3.18-1.37-4.58a15.17,15.17,0,0,0-1.29-4.36c-.25-.84.17-2-.78-2.6-.3-1.32-.88-2.65-.48-3.85,0-1.24-.88-2.32-1.22-3.47a3,3,0,0,0-.83-2.5,16.26,16.26,0,0,0-.62-3.05l.14-.46c-.58-1.66-1.75-2.74-1.46-4.31A5.28,5.28,0,0,0,34.08,67a18.59,18.59,0,0,0-1-5.13c-.25-.51-1.12-.93-.87-1.66a14,14,0,0,1-.33-2.07c-.69-1.38-1.47-2.73-2.08-4.13.34-1.1-.24-2.75,1.2-3.59l0,.08c1.85-.78,3.43.09,5.41-.89,1-.3,2.45-.29,3.67-.64.17-.38.89-.51,1.27-.54.77-.22.73.88,1.48.57C44,49.74,43.47,51.55,43.33,52.67Z"></path><path class="cls-2" d="M91.86,76.68a12.74,12.74,0,0,1-2.76,3.22L85.82,82c-1.81.75-3.36,1.53-5.27,2.25-1.45.19-3,1.16-4.33.91a7,7,0,0,1-2.74.34c-.38-.39-1.31,0-1.75-.23-1.07,0-2.36.12-2.81-.49a3.2,3.2,0,0,1-1.26-.36c-.47-.09-1-.05-1-.49-.72-.3-.92-1-1.7-1.26a10,10,0,0,1-1.78-2.43,13.87,13.87,0,0,1-2.39-4.48,10.07,10.07,0,0,0-.86-2,3.89,3.89,0,0,1-.57-1c.24-.69-.61-1.18-.18-1.81-.49-.48-.11-1-.27-1.5-.5-1.09-1.52-2.15-1.55-3.44.33-.38-.15-.8-.31-1-.09-.93-1.18-1.3-.84-2.29.05-.7-.56-1-.81-1.52.67-1-.3-2.22-.66-3.13a20.54,20.54,0,0,0-1.12-2.89c-.28-.93-1.14-1.71-.91-2.73-.63-.33-.52-1.15-1.19-1.35a1,1,0,0,1,.43-1.53c2.07-.48,3.75-.75,5.87-1.41.57-.45,1.55-.45,2.22-.87.62,0,1.72-.49,2.26-.14a.74.74,0,0,1-.09.87,2,2,0,0,1,.14,1.7,9.47,9.47,0,0,0,.63,3c.67.76.44,2.07,1.08,2.73-.21.51.22,1.06-.07,1.55.22.44,1,.38,1,1-.57.79.49,1.33.6,2a17.5,17.5,0,0,0,1.27,3.41c-.13.43.5.76.38,1.3l.45.89a35.26,35.26,0,0,1,2,5.56c.44.6.36,1.19.8,1.8A9.37,9.37,0,0,0,71.17,75a5.3,5.3,0,0,0,5.13,3c1.41-.35,3.1-.61,4.07-1.51.59-.73,1.81-1.36,1.55-2.25,0-.72.45-1.49-.1-2.11l-.55-1.87c.17-1.18-1.14-2-1.17-3.33.12-.48-.25-.83-.43-1.17-.1-.92-.77-1.69-.69-2.61-.54-.92-.7-1.77-1.24-2.68a4.06,4.06,0,0,0-.41-1.4c-.1-.65.22-1.36-.42-1.74-.23-.44-.09-.88-.24-1.12.05-1-.82-1.9-1.07-3-.16-.23,0-.67-.23-1.06-.63-.38-.17-1.19-.65-1.61a15.62,15.62,0,0,1-.47-1.89c-.32-.48-.33-1.09-.92-1.32l-.74-1.87c-.46-.37-1.16-1-.85-1.67.47-1.1,2.85-1.16,4.32-1.59,1.37-.17,2.76-.85,4.15-1a3,3,0,0,1,2.19-.41c.52.87-.11,2,.65,2.8a10.33,10.33,0,0,0,.55,2.76c-.37,1.13,1,1.68.55,2.72,0,.75.54.92.4,1.63,0,1.57,1,2.19,1.78,3.32.24.55-.19,1.18.2,1.58-.14,1,.75,1.64,1.08,2.45,0,.77.58,1.36.27,2.12,0,.44.37.68.58,1.07-.09,1.2.73,2.44,1.19,3.42a2.68,2.68,0,0,1,.56,2.21,1.79,1.79,0,0,0,.73,1.26l-.08,0a8.63,8.63,0,0,0,1.25,3.35c.43.55.2,1.24.62,1.79C93.08,74.47,92.15,75.53,91.86,76.68Z"></path><path class="cls-2" d="M103.08,38.51c.45.6.26,1.16.38,1.58-.4.74.4,1.35.69,2,0,1,.5,2,.5,2.9.53.59.31,1.38.92,1.93.11.7,0,1.65.79,2.08-.18,1.18.53,2.39.61,3.54s.89,1.78.73,2.73c-.19.56,1,1.19.44,1.79,0,.33.38.39.51.52l.71,2.11c-.28.53.37,1.24.65,1.56a6.1,6.1,0,0,0,.25,1.78c-.43.64.06,1.12.19,1.81.19.34.53,1.2.75,1.64-.32,1.33.71,2.11.56,3.39,0,.67.83,1,.52,1.77.67.77.3,1.88,1.12,2.55-.13.77-1.41,1.25-2.63,1.59-1.06,0-2,.8-2.76.58a13.66,13.66,0,0,1-2.88,1.34c-1-.06-2.37.68-3.09,0-1.14-1.48,0-3.43-1.48-5,.27-1.48-.9-2.73-1-4.28-.62-.61-.4-1.34-.61-2.07-.43-1.45-.65-3.08-1.19-4.62.45-.86-1.1-.7-.84-1.61a4.92,4.92,0,0,0-.31-2.28,3.75,3.75,0,0,0-.46-2.12c.42-.69-.64-1-.72-1.55a6,6,0,0,0-.37-2.14c-.17-.86-.71-1.49-.7-2.33.22-.74-.35-1.48-.5-2.28-.44-.61-.31-1.66-1-2.14-.42-1.41-.38-3.05-1.47-4.36.07-.64-.42-1.41.18-2.08,1.19-.74,2.1-.38,3.24-.71a14.72,14.72,0,0,0,2.66-.6A3.83,3.83,0,0,1,99,36.93a17.08,17.08,0,0,1,3.67-.78c.66.15.28.93.56,1.3A1.4,1.4,0,0,1,103.08,38.51Z"></path><path class="cls-2" d="M180.45,15.71a7.61,7.61,0,0,0-1,3.1c.25.84-.95,1.6-.67,2.52a6.71,6.71,0,0,0-.39,4.1c-.26.41.4,1,.15,1.45-.2,1.56-.12,3.11-.93,4.51,0,1.4.36,2.81-.54,3.89-.3.92.59,2,.07,2.8.18.61.43,1.12,0,1.76,0,1-1,1.63-.8,2.72-.19.31-.82.4-.6.84.87,1.66-.07,2.93,0,4.56a27.56,27.56,0,0,0-1,3,4.56,4.56,0,0,1,.37,2.22c.39.38.39,1.3.71,1.79a13.82,13.82,0,0,0,.52,3.33c.08.89.95,1,1.24,1.64a4.88,4.88,0,0,0-.08,2.6c-.32.51.49,1,.34,1.48.36.89,1.2,1.48.9,2.4,1,1.53.89,3.65,1.55,5.53a9.26,9.26,0,0,1,1.08,3,1,1,0,0,1-.41.87,10.5,10.5,0,0,0-3,.88,11.26,11.26,0,0,0-4.76,1.12c-1,.3-2.28,1.23-3,.44a2.43,2.43,0,0,0-.65-.56c-.29-1-1.15-2-.46-2.86.11-.86-.48-1.6-.7-2.37,0-.91-.57-1.91-.67-2.88,0-1.17-1-2.89-.8-4a4.61,4.61,0,0,1-.74-3.78c-.32-1.07-1-1.63-.85-2.83,0-2.24-1.38-3.75-2.34-5.39a19.73,19.73,0,0,1-2.65-3.81A8.48,8.48,0,0,1,158,46.26l-2.64-3.14c-.79-.43-.13-2-1.15-2.32-.65-.89-.9-2.07-2-2.58a7.79,7.79,0,0,0-2-2.25c-.72-.87-1-2-1.93-2.68-1-1.13-1-3.19-2.61-3.73-1.09-1.76-2.82-2.84-3.85-4.71-.07-.56.27-1,.81-1.4l.33-.17c1.5,0,2.84-.57,4.33-.66l4.76-1.13a2.7,2.7,0,0,1,2.75.37c.1,2.22,2.13,2.71,2,4.9a6.84,6.84,0,0,0,1.82,3,3,3,0,0,0,1.36,2c.8.18,1.55.47,1.68,1.51l1,.39c.16,1.53,1.58,2.2,2,3.65.31.41,1.18.16,1.78,0,1.44-1.5.23-3.72.75-5.45.17-1,.18-2,.25-3,0-1.32.67-2.52.53-4a13.43,13.43,0,0,1,.39-5.35c.28-1-.24-2.42,1.1-3a26.36,26.36,0,0,1,3.58-.69,8.47,8.47,0,0,1,2.74-.62l4.51-1.05c.3.07.6.15.7.46C181.12,15.1,180.65,15.4,180.45,15.71Z"></path><path class="cls-2" d="M88.3,108.33a32,32,0,0,1,1.08,4.1c.71,1.93.71,3.95,1.41,6.08.3.33,0,.69.2,1.12.5,1.44.14,2.72.83,4.11-.34,1.14.54,2.74.43,3.95.47.9.28,1.84.59,2.87-.11.51.15,1.19-.1,1.67-.92.48-1,1.33-1.39,2.06-.66.41-.83,1.21-1.62,1.44-.49.34-.73.9-1.41,1.09-1.63.12-2.32,1.35-3.95,1.69a17.64,17.64,0,0,0-1.85.68,2.24,2.24,0,0,0-1.78.51c-1.51.71-3,.72-4.5,1.16-1.1.11-2.26,1.55-3.25.66-.32-.46-1-1.36-.64-2L71.93,138a2.6,2.6,0,0,0-.31-2.19c-.12-1.07-.71-1.94-.65-2.85a3.07,3.07,0,0,0-.58-2.18,16.47,16.47,0,0,1-.74-3,7.62,7.62,0,0,0-.71-1.94c.17-.32-.22-1-.21-1.38a14.82,14.82,0,0,0-1.25-3.58,7.94,7.94,0,0,0-.32-2.19,7.21,7.21,0,0,1-.47-1.59c.24-.34-.23-.55-.12-.86a11,11,0,0,1-.79-3.78l-1.09-2.79,0-1.86A16.84,16.84,0,0,1,63.22,103l.07-.23L62.39,100c-.56-1.23-.45-2.64-1.12-3.76-.34-.94-.94-2.29-.31-3.08l1.59-.47A20.85,20.85,0,0,1,66.07,92c.67-.18,1.72-.28,2.43-.55.6.24,1.23-.57,1.81-.39,1.17-.06,2.51-.72,3.62-.56,1-.55,1.64.15,2.56-.11a12.44,12.44,0,0,0,2.32.44A13.64,13.64,0,0,0,82,92.38c.41.5.64,1.05,1.17,1.24.56.54.53,1.79,1,2.19,1.1,3.28,2.07,6.31,3.25,9.62C87.47,106.43,88.26,107.3,88.3,108.33ZM77.11,99.67c-.49-.76-1.62-.77-2.41-1-.27-.26-.91.05-1.22.15-.38-.38-1.14.4-1.6,0-1.28.16-2.3.74-2.54,1.77a34,34,0,0,1,1.25,5.1c.66,1.33.64,2.85,1.2,4.27l.27.69c.19.84.45,1.52.68,2.29a53.46,53.46,0,0,1,2.64,9.79c.3.33.11.8.28,1.17.33,1.35.45,2.63.86,4-.27.42-.08,1.06-.05,1.61.56.32.39,1.54,1.22,1.44a1.32,1.32,0,0,0,1.48.33l2-.93A1,1,0,0,1,82,130c1.17-.34,1.49-1.26,2.15-1.93.79-1.6-.06-3.78-.46-5.8-.5-1.24-.19-2.43-.82-3.42-.44-1-.12-2.18-.88-3.2.26-.91-.63-1.47-.61-2.52a43,43,0,0,0-1.62-5.47c-.55-1.64-.86-3.35-1.29-5C78.49,101.2,77.36,101,77.11,99.67Z"></path><path class="cls-2" d="M139,87.92c-.25.71.63,1,.62,1.66a2.23,2.23,0,0,1,.87,2,4.56,4.56,0,0,0,.53,1.55c-.38,1.19.92,2.2.79,3.32-.17.55.66,1.33.29,1.87.26.88.49,1.89.81,2.74,0,.32.25.37.36.53,0,.45.37.84.07,1.18a10.09,10.09,0,0,1,.71,3.71c.73.92.47,1.82,1.06,2.92.28.93,0,1.77.28,2.7-.32.28.32.86.07,1.18-.75,1,.28,2.51-.83,3.45-.37.3-.19.7-.49,1-.85.94-1.18,2-2.09,3a1,1,0,0,0-.85.74l-3.49,1.65c-.46.26-.91.51-1.37.32-.92.46-2,0-2.89.77-1.62.15-2.36-1.21-4-.93-.85-.39-2-.36-2.92-.67-.39-.4-.54-.92-1-1.16-.28-.49-.88-.7-.95-1.18a4.57,4.57,0,0,0-.4-.65l-.13-.9c-.37-.34,0-.7-.34-1.1-.71-1.51-.88-2.72-1.47-4.32,0-.69,0-1.72-.66-2.22a2.05,2.05,0,0,0-.52-1.55c-.12-.85-.88-1.84-.8-2.69a21.43,21.43,0,0,1-.75-2.75c-.56-1.67-.65-3.29-1.22-5a4.61,4.61,0,0,0-.38-1.28c0-.57-.45-1.07-.52-1.74s-.55-1.18-.49-1.88a20.66,20.66,0,0,0-1.34-3.16c-.3-1.24,0-2.35-.11-3.57a7.16,7.16,0,0,1,1.57-3.86,3,3,0,0,1,1.37-1.85c.89-.82,1.53-2,2.94-2.18.54,0,.73-.45,1.16-.59,1,0,1.93-.87,2.94-.84.79.21,1.69-.36,2.47-.15a8.86,8.86,0,0,0,2.31.16,29.38,29.38,0,0,0,2.84.89,8.35,8.35,0,0,0,2,1.21c.75.73,1,2,2.12,2.24.38.13.19.63.39.89.47.88,1.1,1.9,1.48,2.74C139.09,86.77,139,87.31,139,87.92Zm-8,1.93a4.7,4.7,0,0,0-.24-1.26A3.31,3.31,0,0,0,128.92,86c-.68-.06-1.13-.68-2-.38-1.32.25-3,.31-3.83,1.42-.24.32-.05.71-.46.89-.07.65-.67,1.08-.88,1.71s.55,1,.32,1.56c.73.87.31,1.74.66,2.66a8.92,8.92,0,0,1,.85,3.36c.68.94-.18,2.08.91,2.83.09,1.18,1,2.13.79,3.12a6.92,6.92,0,0,0,.63,1.91c.47.68.22,1.2.35,1.85a2.42,2.42,0,0,1,.14,1.35c.3.35.73,1.12.51,1.5a1,1,0,0,0,.28.93c.64.82,0,1.44.11,2.18s.62.77.92,1.32c.57.34.52,1.74,1.53,1.58a4.24,4.24,0,0,0,4.09.15c.69-.13,1.56-.13,2-.76.73-.46.4-1.12,1-1.73-.13-.4.24-.76.17-1.18-.25-1.51-.8-3.18-1.08-4.56.07-1.34-1-2.61-1.12-4,.35-.61-.44-1.51-.37-2.16a16.36,16.36,0,0,1-.9-3.47l-.84-2.85c.25-.51-.51-1.06-.54-1.61.43-.57-.39-1.53-.45-2.22A2,2,0,0,0,131,89.85Z"></path><path class="cls-2" d="M167.88,86.35a18.78,18.78,0,0,1,.63,4.47,4,4,0,0,1-.93,2.24,2,2,0,0,0-.59,1.5c-.71.32-.64,1-1.43,1.32-1.16.89-2.48,1.89-3.69,2.86a8,8,0,0,0-2,.7c-.73.4-1.65.11-2.09.95-.36.33-1.26.44-.9,1.06.4,1.63,1.17,3.34,1.4,4.88.51.5.12,1.25.68,1.87a25.81,25.81,0,0,0,1,3c.2.34.16,1,.51,1.39.47,1.27.81,2.57,1.42,3.85a5,5,0,0,1,.81,2c0,.6-.69.52-1,.85a27.53,27.53,0,0,1-5.1,1c-.69,0-1.34.05-1.8-.45a8.34,8.34,0,0,1-1.1-2.26l0-.43-.92-2.67a12.37,12.37,0,0,0-1-2.5,5.66,5.66,0,0,0-.82-2.43,8.19,8.19,0,0,0-.59-2.51c-.64-.66-.71-1.92-1.07-2.75.18-.61-.43-1.35-.71-1.92.05-1-.57-1.92-.81-3.12-.38-.27-.12-.7-.4-1.08-.71-.84-.61-2.23-1.24-3.37-.42-.6-.24-1.21-.4-1.83-.73-1.24-.35-2.59-1.23-3.85.05-.23-.21-.41-.26-.53-.13-.9-.84-1.74-.85-2.49-.21-.94-.85-1.94-1.1-2.81-.8-.87-.46-1.81-.82-2.78-.56-1.49-1.68-2.87-1.86-4.3.07-.56.68-.92,1.2-1.17.83.24,1.65-.32,2.41-.45l2.74-.83c.54,0,.59-.41,1.18-.49,1.48-.39,3.15-.84,4.61-1.29,1.18.26,2.44-.54,3.59-.19.91-.26,1.48.36,2.44,0,.75.55,1.94-.07,2.32,1,.54,1.1,2,.59,2.61,1.53a6.72,6.72,0,0,1,1.38,2.85,9.43,9.43,0,0,1,1.06,2.15c.35,1,1,1.55,1,2.48l.08,0Zm-11-6c-1.18-1-3-.63-4.59-.14-1.52-.07-2.54,1-3.44,1.9,0,.47-.5.86-.9,1.07-.15.12-.08.5,0,.83.23.05.38.28.58.28.29.78,1.27.5,1.42,1.47.71.63.75,1.84,1.08,2.74-.13.39.26.72.4,1.09a5.33,5.33,0,0,0,1.82,3.1c.73-.05,1.45.44,2,0l2-.9a14.56,14.56,0,0,1,2-1.59,2.77,2.77,0,0,0,.9-2.7,11.82,11.82,0,0,0-1-3.52A7.48,7.48,0,0,0,156.84,80.32Z"></path><path class="cls-3" d="M116.71,36.2c0-.17-.78-.67-1.14-.57.4,1.34-1.28,4.43-2.69,4.83.34.41-.8,21.19,4.1,19.77.77,2.62,2.45,2.32,3.1,4.52.13,0,5.58,2.93,5.82,3.73,2.18.82,15.88-.06,15.2-2.35,3.48.85,4.79-6.79,7.2-7.48,2.3-13.91-4.6-1.61-6.2-7-1.2.11-3.61,1.72-4,.47-2.51.72-1.35,5-5.72,5.3-7.23.56-9.92-14-4.34-16.83,2.64-1.35,5.72,2.52,7.65,1.4.24-1.88,5.77-5.28,7.56-6.23-1.1-2.22-3-3.92-5.27-3.89C135.88,24.71,117.3,31.47,116.71,36.2Z"></path><path class="cls-3" d="M120.1,121.45c-1,.29-2.19-6.93-3.05-7.7-.35-.31-.19-2.11-.52-2-.35-1.17-.92-2.33-1.32-3.68.09,0-2.46-2.74-2.69-3.15a21.5,21.5,0,0,1-2.53-1.1,35.66,35.66,0,0,0,1.89-4.21,6.7,6.7,0,0,1,.15-2.27c-.1-.34-.7-3.72-.8-3.63.68-.59-2.2-4.13-2.38-4.74-.08,0-4.58-3.67-4.54-3.54a24.17,24.17,0,0,1-4.11-.9c-1.88-.25-4.92,1.14-7.15,1.8-.05-.19-2.67.77-3.14.85a7.81,7.81,0,0,0-2.36.64c-.28.14-.21.54-.39.59.11.35.64,1.91.68,1.9.48,1.63.57,2.3,1.07,4,.18-.06,2.48,8.77,2.64,9.31,0,0,.72,1.87.75,2.13-.17.06,1.53,5,1.54,5.49s2.47,8.28,2.32,8.33A39.6,39.6,0,0,0,98,125.75c.49,1,.17,3.32,1.53,2.93.09.27,3.37-.8,3.77-.92,1.18-.35,4-.54,4-2,0,0-1.91-6.9-2.22-8.06-.26-1-2.61-6.88-2-7.38a2.59,2.59,0,0,1,3.84,1c.53-.15,1.49,4.55,1.46,4.56.48,1.5.89,3,1.46,4.94-.07,0,1,2.38,1.11,2.56.75,2.51,2,1.64,3.57,1.2s3.24-.8,4.27-1.1c0-.09.92-.43,1-.28C121.07,122.65,120.43,122.54,120.1,121.45Zm-16.7-21.37c-.32.09-.62.86-1,1.11a3.53,3.53,0,0,1-1.45.36c-1,.17-1-2.43-1.43-3.23s-1.29-3.33-1-4c0,.13,1.94-.52,2-.2.52,0,1.88.91,1.68,1,0,.13.52.89.5.91C103.46,97.39,103.33,98.35,103.4,100.08Z"></path><path d="M205.77,89.41a3.89,3.89,0,1,1-3,4.68A3.85,3.85,0,0,1,205.77,89.41Zm1.57,6.76a3.06,3.06,0,1,0-3.55-2.32A3,3,0,0,0,207.35,96.17Zm-2.7-4.76,1.6-.38c1.06-.24,1.73-.05,1.95.87a1.08,1.08,0,0,1-.84,1.39l1.56,1.58-.88.21-1.45-1.57-.53.13.42,1.81-.84.2ZM205.9,93l.75-.17c.48-.11.81-.27.69-.78s-.61-.42-1-.32l-.71.16Z"></path></g></g></svg> 