<?xml version="1.0" encoding="UTF-8"?> <svg xmlns="http://www.w3.org/2000/svg" xmlns:xlink="http://www.w3.org/1999/xlink" viewBox="0 0 301.39 250.75"><defs><style>.cls-1,.cls-4{fill:#065baa;}.cls-1{opacity:0.3;}.cls-1,.cls-2,.cls-5,.cls-7{mix-blend-mode:multiply;}.cls-2,.cls-6,.cls-7{fill:#054b8f;}.cls-2{opacity:0.5;}.cls-3{stroke:#231f20;stroke-width:9.98px;fill:url(#radial-gradient);}.cls-8{fill:#00a1e4;}.cls-9{fill:#fff;stroke:#fff;stroke-width:3.76px;}.cls-10{fill:#ed1c24;}.cls-11{fill:#231f20;}</style><radialGradient id="radial-gradient" cx="4413.69" cy="-2037.53" r="111.33" gradientTransform="translate(-3352.16 3498.16) rotate(-19.35)" gradientUnits="userSpaceOnUse"><stop offset="0" stop-color="#fff200"></stop><stop offset="0.32" stop-color="#ffef01"></stop><stop offset="0.56" stop-color="#ffe604"></stop><stop offset="0.76" stop-color="#fed609"></stop><stop offset="0.96" stop-color="#fdbf11"></stop><stop offset="1" stop-color="#fdb913"></stop></radialGradient><symbol id="New_Symbol_7" data-name="New Symbol 7" viewBox="0 0 274.27 227.02"><path class="cls-1" d="M110.8,227a100.42,100.42,0,0,1-16.87-1.46c-47.26-8.08-72.18-38.46-78.94-48-7-5-15-12.93-15-25.82,0-5.79,1.62-11.86,5.1-19.11.72-1.62,2.56-8.32,4-13.71,8.63-31.33,18.45-63,35.21-76.56C65.68,25.2,82,23,93.79,23c1.65,0,3.22,0,4.73.08,1.15,0,2.25.06,3.31.06a12.78,12.78,0,0,0,3.45-.29c1.1-.39,3.3-2.25,5.42-4C119.54,11.31,132.89,0,164.64,0h.42c21.53.06,49,18.67,75.35,37.73,4.53,3.28,10.16,7.36,11.79,8.2,5.42,2.6,22.08,10.6,22.08,29.64a42.3,42.3,0,0,1-1.76,11.56c.08,1.37.15,3.12.14,5.21a124.82,124.82,0,0,1-31.76,81.6c-20.45,23-42.77,28.56-59.06,32.58-4.26,1.05-7.93,2-11,3s-6.48,2.66-10.46,4.5c-11.83,5.47-28,13-49.6,13Z"></path><path class="cls-2" d="M110.8,219.93a93.55,93.55,0,0,1-15.68-1.36c-44.69-7.64-68.22-36.45-74.36-45.09l-.69-1-1-.69c-8.2-5.86-12-12.23-12-20.05,0-4.69,1.4-9.79,4.4-16l.09-.2c.8-1.8,1.94-5.78,4.37-14.61,8-29,17.73-60.83,32.85-73,19.6-15.8,34.34-17.83,45-17.83,1.58,0,3.09,0,4.54.08h.17c1.14,0,2.25.06,3.32.06a17.33,17.33,0,0,0,5.82-.7c2.23-.78,4.36-2.53,7.66-5.33,8.52-7.22,20.2-17.11,49.35-17.11H165c19.41.06,46.93,18.81,71.2,36.39,7.47,5.41,10.88,7.82,12.68,8.75l.2.1c7.75,3.72,18.06,10.18,18.05,23.25a35.14,35.14,0,0,1-1.49,9.64l-.32,1.14.07,1.19c.09,1.52.13,3.13.13,4.79a117.61,117.61,0,0,1-30,76.9c-19,21.39-39.21,26.39-55.46,30.41-4.43,1.1-8.26,2-11.62,3.22s-6.93,2.83-11.06,4.74c-11.25,5.21-26.64,12.32-46.64,12.32Z"></path><path class="cls-3" d="M110,36.21C98,40.41,83.05,29.4,53.25,53.42,33.47,69.37,22.4,129.37,17.88,138.8c-6.74,14-4.28,21,7.34,28.61,0,0,21.77,35.74,71.11,44.18,33.61,5.75,53.55-9.68,69.84-15.4s41.49-6.14,64.13-31.65c33.23-37.43,27.87-78.94,27.87-78.94C262.49,72.42,260,65.42,246,58.68c-9.43-4.53-55.58-44.43-81-44.51C126.74,14.06,121.92,32,110,36.21Z"></path><path class="cls-4" d="M110,36.21C98,40.41,83.05,29.4,53.25,53.42,33.47,69.37,22.4,129.37,17.88,138.8c-6.74,14-4.28,21,7.34,28.61,0,0,21.77,35.74,71.11,44.18,33.61,5.75,53.55-9.68,69.84-15.4s41.49-6.14,64.13-31.65c33.23-37.43,27.87-78.94,27.87-78.94C262.49,72.42,260,65.42,246,58.68c-9.43-4.53-55.58-44.43-81-44.51C126.74,14.06,121.92,32,110,36.21ZM241,71.13c12.6,35.87-24.52,81.57-82.9,102.08s-115.92,8-128.52-27.83S54.09,63.8,112.47,43.29,228.39,35.25,241,71.13Z"></path><g class="cls-5"><path class="cls-6" d="M230.71,155.24c-24,26-50.32,26.8-67.41,32.8s-38.13,21.82-73.12,16.55A114.67,114.67,0,0,1,41,185.22a110.8,110.8,0,0,0,55.33,26.37c33.61,5.75,53.55-9.68,69.84-15.4s41.49-6.14,64.13-31.65A110.78,110.78,0,0,0,257,109.37,114.67,114.67,0,0,1,230.71,155.24Z"></path></g><path class="cls-7" d="M112.47,43.29c27.06-9.5,53.94-11.92,76.25-8.21-22.22-4.77-49.45-2.93-76.79,6.67S62.19,66.95,47.83,84.56C62.92,67.72,85.4,52.8,112.47,43.29Z"></path><path class="cls-8" d="M158.09,173.2c-56.3,19.77-111.82,8.88-127-24.09.32,1.3.7,2.59,1.15,3.87,12.6,35.87,70.14,48.33,128.52,27.83s95.5-66.2,82.9-102.08c-.45-1.28-1-2.52-1.52-3.74C250.91,110.22,214.39,153.43,158.09,173.2Z"></path><path class="cls-8" d="M110,36.21c11.94-4.2,16.75-22.16,55-22,8.25,0,18.7,4.25,29.36,10.11-17.79-2.41-40.82-2.73-52.52.76-10.9,3.25-12.29,8.12-30.68,14.58s-22.52,3.53-33.06,7.81C66.81,52,49,66.66,36.66,79.67,41.32,68.44,46.83,58.6,53.25,53.42,83.05,29.4,98,40.41,110,36.21Z"></path><path class="cls-8" d="M112.71,195a7.69,7.69,0,0,0-3.65.95c-.85-1.52-4.11-2.8-8.5-3.15-5.78-.46-11.33.88-12.4,3s2.76,4.2,8.54,4.66c5,.4,9.87-.56,11.75-2.2a6,6,0,0,0,4.08,1.08c2.54-.08,4.64-1.12,4.69-2.31S115.25,195,112.71,195Z"></path><path class="cls-9" d="M88.81,128.28,76.6,94.79q2.35,13.75,4.4,26.67-4.64,2.08-9.25,4.2Q65.66,115.74,60,106.76q5.34,13.35,10.76,26.89-6.65,2.6-13.31,5.16L46.16,106.66A176.58,176.58,0,0,1,61.07,91.22q5.08,7.73,10.46,16.15-1.68-12.11-3.69-25.09A171.53,171.53,0,0,1,81.53,71.66L101.1,123.6Z"></path><path class="cls-9" d="M106.08,74.72l2.25,5.43q5.67-2.49,11.46-4.69l4.66,12.76q-6.56,2.48-13,5.21l2.5,6.88q8.06-3.39,16.24-6.51l5.88,16.93q-14.1,5.6-28.18,11.18L87.67,68.37A164.3,164.3,0,0,1,115,54.71l5.17,13.69Q113,71.29,106.08,74.72Z"></path><path class="cls-9" d="M155.73,104.46c-12.32,4.34-18.4-4-23.71-19.19C125.28,66,121.8,51.69,140.9,47.73c10.18-1.86,20,.83,24.21,13.75l.82,2.53q-7.12,1.45-14.15,3.38l-2.9-8.73q-4.36.9-8.67,2,4.22,13.84,8.48,27.73,5.11-1.72,10.25-3.32l-1.65-4.76q-3.19.77-6.38,1.6L148,72.6q9.91-1.88,19.92-3.12C174.67,90.86,174.26,97.84,155.73,104.46Z"></path><path class="cls-9" d="M205.49,86.32q-2.93-4.38-5.93-9.07-3,.71-6,1.46-.23,5.51-.36,11.38-8,2.73-16,5.5C176.09,77.7,175.44,61,175.28,46q7.59.18,15.22,1.07a407.34,407.34,0,0,0,25.58,35.73ZM186,57.54q.14,6.61.41,13.7,3.64-.77,7.29-1.43Q189.95,63.88,186,57.54Z"></path><path class="cls-9" d="M96.07,173.43l-8.31-27.15q1.13,10.47,2,20.12-4.15.1-8.31,0-4.66-8.78-9.13-16.78,3.86,10.84,7.76,21.86-5.93-.59-11.85-1.66l-8.95-25.48q7.58-2.43,15.16-5,4,6.91,8.06,14.39-.63-8.94-1.48-18.7,6.08-2.29,12.15-4.62l13.74,42.69Q101.53,173.48,96.07,173.43Z"></path><path class="cls-9" d="M127,172.43c-10.55,1.45-17.89-6.8-22.07-19.78-4.57-14.22-3.3-25.09,8.3-29.38,9.07-3.25,16.86,4.88,21.73,19.07C141,159.85,140.2,170.24,127,172.43Zm-12.65-33.67,5.77,19.53q3.53-.61,7-1.33l-6.86-19.65Q117.33,138.05,114.36,138.76Z"></path><path class="cls-9" d="M161.21,161.66c-10.2,4-15.94-1.92-20.83-16.12-2.91-8.44-8.88-27.25-8.88-27.26L142.15,115q5.61,16.64,11.22,33.29,4-1.83,7.85-3.81l-11.9-32,10.25-3.8s7.5,20,10.7,28.65C175.64,151.77,170.09,158.07,161.21,161.66Z"></path><path class="cls-9" d="M185.18,117.17l9.87,25.58q-4.38,3.12-8.94,5.93L175,119q-3.29,1.41-6.61,2.76l-4.84-12.42q12.25-4.17,24.39-8.56l4.54,13Q188.86,115.53,185.18,117.17Z"></path><path class="cls-9" d="M225.45,115.44q-3.12,4-6.43,7.78l-5.85-15.48q-2.81,2.16-5.67,4.29l5,13q-4,3.92-8.15,7.61l-14.23-35.3q5.93-2.52,11.88-5l3.33,9.11,5.49-3.09-3-8,7.88-2.9Z"></path><path class="cls-10" d="M88.81,128.28,76.6,94.79q2.35,13.75,4.4,26.67-4.64,2.08-9.25,4.2Q65.66,115.74,60,106.76q5.34,13.35,10.76,26.89-6.65,2.6-13.31,5.16L46.16,106.66A176.58,176.58,0,0,1,61.07,91.22q5.08,7.73,10.46,16.15-1.68-12.11-3.69-25.09A171.53,171.53,0,0,1,81.53,71.66L101.1,123.6Z"></path><path class="cls-10" d="M106.08,74.72l2.25,5.43q5.67-2.49,11.46-4.69l4.66,12.76q-6.56,2.48-13,5.21l2.5,6.88q8.06-3.39,16.24-6.51l5.88,16.93q-14.1,5.6-28.18,11.18L87.67,68.37A164.3,164.3,0,0,1,115,54.71l5.17,13.69Q113,71.29,106.08,74.72Z"></path><path class="cls-10" d="M155.73,104.46c-12.32,4.34-18.4-4-23.71-19.19C125.28,66,121.8,51.69,140.9,47.73c10.18-1.86,20,.83,24.21,13.75l.82,2.53q-7.12,1.45-14.15,3.38l-2.9-8.73q-4.36.9-8.67,2,4.22,13.84,8.48,27.73,5.11-1.72,10.25-3.32l-1.65-4.76q-3.19.77-6.38,1.6L148,72.6q9.91-1.88,19.92-3.12C174.67,90.86,174.26,97.84,155.73,104.46Z"></path><path class="cls-10" d="M205.49,86.32q-2.93-4.38-5.93-9.07-3,.71-6,1.46-.23,5.51-.36,11.38-8,2.73-16,5.5C176.09,77.7,175.44,61,175.28,46q7.59.18,15.22,1.07a407.34,407.34,0,0,0,25.58,35.73ZM186,57.54q.14,6.61.41,13.7,3.64-.77,7.29-1.43Q189.95,63.88,186,57.54Z"></path><path class="cls-10" d="M96.07,173.43l-8.31-27.15q1.13,10.47,2,20.12-4.15.1-8.31,0-4.66-8.78-9.13-16.78,3.86,10.84,7.76,21.86-5.93-.59-11.85-1.66l-8.95-25.48q7.58-2.43,15.16-5,4,6.91,8.06,14.39-.63-8.94-1.48-18.7,6.08-2.29,12.15-4.62l13.74,42.69Q101.53,173.48,96.07,173.43Z"></path><path class="cls-10" d="M127,172.43c-10.55,1.45-17.89-6.8-22.07-19.78-4.57-14.22-3.3-25.09,8.3-29.38,9.07-3.25,16.86,4.88,21.73,19.07C141,159.85,140.2,170.24,127,172.43Zm-12.65-33.67,5.77,19.53q3.53-.61,7-1.33l-6.86-19.65Q117.33,138.05,114.36,138.76Z"></path><path class="cls-10" d="M161.21,161.66c-10.2,4-15.94-1.92-20.83-16.12-2.91-8.44-8.88-27.25-8.88-27.26L142.15,115q5.61,16.64,11.22,33.29,4-1.83,7.85-3.81l-11.9-32,10.25-3.8s7.5,20,10.7,28.65C175.64,151.77,170.09,158.07,161.21,161.66Z"></path><path class="cls-10" d="M185.18,117.17l9.87,25.58q-4.38,3.12-8.94,5.93L175,119q-3.29,1.41-6.61,2.76l-4.84-12.42q12.25-4.17,24.39-8.56l4.54,13Q188.86,115.53,185.18,117.17Z"></path><path class="cls-10" d="M225.45,115.44q-3.12,4-6.43,7.78l-5.85-15.48q-2.81,2.16-5.67,4.29l5,13q-4,3.92-8.15,7.61l-14.23-35.3q5.93-2.52,11.88-5l3.33,9.11,5.49-3.09-3-8,7.88-2.9Z"></path><path class="cls-11" d="M221.83,74.08a3.72,3.72,0,0,1,1.82-.28,3.33,3.33,0,0,1,1.78.69,3.64,3.64,0,0,1,1.45,3.32,3.36,3.36,0,0,1-.7,1.76A3.64,3.64,0,0,1,222.86,81a3.38,3.38,0,0,1-1.77-.7A3.62,3.62,0,0,1,219.67,77a3.34,3.34,0,0,1,.71-1.77A3.72,3.72,0,0,1,221.83,74.08Zm.24.55a3.09,3.09,0,0,0-1.21.95,2.81,2.81,0,0,0-.59,1.48,3,3,0,0,0,1.19,2.77,2.85,2.85,0,0,0,1.47.58,3,3,0,0,0,2.76-1.2,2.82,2.82,0,0,0,.58-1.47A3,3,0,0,0,225.06,75a2.79,2.79,0,0,0-1.48-.58A3.08,3.08,0,0,0,222.06,74.63Zm.54,5.24-1.55-3.58,1.23-.53a3.29,3.29,0,0,1,1-.3,1,1,0,0,1,.6.15,1,1,0,0,1,.39.45,1,1,0,0,1,0,.8,1.21,1.21,0,0,1-.6.65,1,1,0,0,1,.38.06,4.45,4.45,0,0,1,.84.48l.74.51-.7.31-.56-.43a3.14,3.14,0,0,0-1-.57.81.81,0,0,0-.51.08l-.34.15.66,1.52Zm-.3-2.26.7-.3a1.23,1.23,0,0,0,.62-.45.56.56,0,0,0-.2-.72.57.57,0,0,0-.33-.08,2,2,0,0,0-.61.19l-.66.28Z"></path></symbol></defs><title>mm</title><g id="Layer_2" data-name="Layer 2"><g id="Layer_1-2" data-name="Layer 1"><use id="New_Symbol_7-3" data-name="New Symbol 7" width="274.27" height="227.02" transform="translate(-1.65 1.8) rotate(-0.57) scale(1.1)" xlink:href="#New_Symbol_7"></use></g></g></svg> 