<?xml version="1.0" encoding="UTF-8"?> <svg xmlns="http://www.w3.org/2000/svg" viewBox="0 0 523.76 318.4"><defs><style>.cls-1{fill:#fff;}</style></defs><title>pp</title><g id="Layer_2" data-name="Layer 2"><g id="LOGO"><path id="OUTLINE" d="M516.26,43.8c-4.24-3-8.49-5.82-12.6-8.51C495.73,30.1,488.24,25.2,481.8,19a18,18,0,0,0-6.82-4.1l-4.2-1.38a18,18,0,0,0-18.34,4.36l-.51.51a18,18,0,0,0-2.63-5l-1.53-2.06a18,18,0,0,0-17.45-7c-13,2.19-26.06,3.44-39.94,4.75-4.58.43-9.31.88-14,1.37a18,18,0,0,0-9.56,4l-2.63,2.15A18,18,0,0,0,360,21.51c-10-9.23-22.26-15.62-34.76-17.73q-.82-.14-1.66-.2c-4.64-.35-9.24-.52-13.67-.52-26.08,0-47.81,6-64.23,17.52q-2.16-5.53-4.78-10.7a18,18,0,0,0-23.82-8.12L183.75,17.69a18,18,0,0,0-16.69-12l-39.64-.6-1.16,0a22,22,0,0,0-17.37,8.11H108c-26.68,0-53.77,9.27-75.54,16.72l-7,2.39a18,18,0,0,0-2.69,1.16c-.31.16-1.25.54-1.93.81C15.37,36.51,2.56,41.68.21,57.11a18,18,0,0,0,.21,6.57c9.64,44,30.77,86.44,64.6,129.77a18,18,0,0,0,12,6.79,24.2,24.2,0,0,0,2.9.18h.6c12.09,38,31.75,75,58.55,110.34a18,18,0,0,0,11.2,6.84l3,.53a18,18,0,0,0,12.37-2.27c17.46-10.44,32-21.89,44.36-35,11.5,10.19,26.75,16.23,44.49,17.41q.59,0,1.19,0t1.23,0a86.23,86.23,0,0,0,45.75-17.42q1.54-1.16,3-2.37.38,4.08.88,8.16a18,18,0,0,0,16.93,15.8c1.65.09,3.34.13,5,.13,12.88,0,25.54-2.5,36.22-4.95a18,18,0,0,0,3.13-1,41.82,41.82,0,0,1,5.23-1.44c7.9-1.87,21.11-5,27.54-18.68a18,18,0,0,0,1.69-7.9A22.28,22.28,0,0,0,421,246a22.81,22.81,0,0,0-.23-2.72c21.6-3.77,43.63-11.67,58-33.48a18,18,0,0,0,2.77-7.22c1-6.58.54-16.41-6.36-27.59a18,18,0,0,0,2.53-1.56l2.93-2.16a18,18,0,0,0,7-11.31c3.93-21.82,9-46.87,19.74-68.05q.29-.57.54-1.17a52.3,52.3,0,0,1,4.85-7.93c3.49-5.09,7.83-11.43,10.17-19.32A18,18,0,0,0,516.26,43.8Z"></path><path id="PUSHPOP" class="cls-1" d="M389.15,246.71a9.27,9.27,0,0,1,9.16-9.66,9.51,9.51,0,0,1,.41,19A9.28,9.28,0,0,1,389.15,246.71Zm9.62,11.22a11.39,11.39,0,1,0-11.88-11.15A11.36,11.36,0,0,0,398.77,257.93Zm-2.66-10.46,2.29,0L402,253l2.22,0-3.88-5.71c2-.26,3.4-1.34,3.36-3.71-.06-2.6-1.64-3.71-4.74-3.66l-5,.11.29,13.19,2-.05Zm0-1.69L396,241.7l2.73-.07c1.39,0,2.88.23,2.92,1.88,0,2-1.48,2.2-3.16,2.24ZM122.4,28.29c-1-3.55,1.37-5.4,4.36-5.16l40,.6c-.32,27.18-1.45,57.06,8.93,80.72,2.77,4.41,8.55,8.76,12.93,3.9,13.55-21.8,1.58-49.3-6.32-70L224.86,18c10.3,20.36,14.42,45.34,12.3,70.76-4.59,21.6-11.59,43-29.75,58.57-15.32-3.83-35.62-3.39-50.73,1.12-21.39-8.5-26.09-32-27.73-53.12,14.4-10.18,26.6-25.07,28.64-42.14.11-8-6.3-14.49-12.64-18.23A53.19,53.19,0,0,0,122.4,28.29ZM311.26,173.13c11.42,17.36,12.58,43.3,4.33,62.28-9.3,24.68-34,43.14-59.9,44.91-17-1.13-33.63-8.24-42.93-24.15-7.74-12.67-9.91-30.23-6.06-45,13.79-11.34,27.22-25.07,25.61-43.55,14.09-11.06,31.24-18.88,50.46-13.95C294.16,155.89,303.88,164.33,311.26,173.13ZM281,194.4c-3.11-5.61-9.18-10-16-8.91a25.3,25.3,0,0,0-10.61,6.8c-3.17,5.14-6,10.28-4.7,17.12a16.69,16.69,0,0,0,9.49,11.43,17,17,0,0,0,17.79-6.07C281.58,209.29,282.91,201.51,281,194.4Zm-82.42,67.16.11,5.09c-12.83,14-27.22,24.77-42.26,33.75l-3-.53c-26.73-35.23-47.28-73.61-59-115.74-2.2-5.3-.57-13.1,5.95-14.44,37.37-11.58,85.8-35.32,124-9l4.36,7.06c-.61,27.18-29.73,46.32-51,56.93-6.52,1.94-16.5-3.81-18.74,3.4C171.54,241.55,185.47,250.21,198.56,261.55Zm-33.62-63.13c4.68-4.28,13-8,13.4-15.2l-1.55-2.06c-13.26-5.4-26.85.88-37.77,6.48-.42,8.07,3.31,15.15,8.2,20.44ZM88.66,178c-3.57,1-5.27,4.88-9.46,4.37C50.33,145.4,28,105.28,18,59.83c1.05-6.9,8.5-7.94,13.21-10.44,35-11.79,82-30.44,117.48-6.75L153,50.31c-.92,25.7-28,45.09-48,55.68-6.81,1.94-16.13-.54-21.43,2.57C94,123.25,110.95,132.43,123.77,145,118.22,164.5,94.55,160.86,88.66,178ZM105.31,65.67l-3.67-4.09c-13.49-2.39-25.62,2.05-36.24,8-.41,8.37,3.3,14.55,8.22,20.7C85.72,84.91,99,77.46,105.31,65.67ZM469.35,32l-4.2-1.38c-13.43,13.41-17.8,32.62-26.4,49.22a37.16,37.16,0,0,1-15-3.85c5.92-16.55,10.62-33.37,11.11-51.88l-1.53-2.06c-18.15,3.07-36.63,4.37-55.09,6.28l-2.63,2.15c1.67,22.05.06,44.77-8.17,64.07,1.79,13.39,0,27.74-10.51,37.25l17.61,13.34,18,2.59c8.37-11.83,13.18-25.09,19.76-37.75a41.2,41.2,0,0,1,16.5,3.82c-3.26,13.49-9.86,26.18-9,40.49,12.45,9.88,31.42,3.22,47.28,4.64l2.93-2.16c4.53-25.16,9.94-50.37,21.39-73,3.67-8.76,11.6-16.09,14.36-25.4C493.64,49.71,480.64,42.85,469.35,32ZM457.69,181.27c4,5.29,7.13,11.78,6.09,18.65-15.6,23.64-44.5,26.05-71,28.75-8.63.76-14.76-6-22.55-7.6.38,17,8.48,32.36,14.17,47.76-4,8.47-15.65,7.81-23.62,11.26-11.59,2.65-24.07,5-36.31,4.39-5.82-47.94.92-94.05,17.94-135,8.87-4.38,20.26-1.64,29.84-.64C402.51,155.31,434.78,156.39,457.69,181.27Zm-46.37,8.17C401.87,180.71,389,178,375.26,178.9c-4,6-7.47,13.61-4.6,21.57,10.45.37,20.57-1.34,30.7-2.16C405.21,196.74,412.65,196,411.31,189.44ZM248.91,79.86C268,92.27,291,94.48,311.22,103.56c2.74,2.64,1.05,6.85-1.28,9.3-4.38,5.17-10,8-17.17,6.94-7.29-5.51-14.91-13.12-13.94-23.28-15.14,4.22-30.25,9-44.12,16.5-2.85,6,2.36,11.88,4.56,17.19,9.73,21.6,33.77,15.69,51.5,21,29-.05,61.6-8.82,72.88-38.61.16-7.18,0-15.83-5.54-21.37C340.26,80,319.58,76.54,299.75,71l-8.21-7c-.95-2.66-1.63-6.83.7-8.68,4.05-5.73,11.83-4.73,17.83-4,8.14,3.12,10.4,11.71,10.27,19.19,13-7.15,27.53-11.35,37.72-23.22-7.75-13-21.72-23.41-35.79-25.78-30.79-2.3-64.42,3.2-81.74,29.86C241.93,60.6,238,74.12,248.91,79.86Z"></path></g></g></svg> 