<?xml version="1.0" encoding="UTF-8"?> <svg xmlns="http://www.w3.org/2000/svg" viewBox="0 0 140.23 126.12"><defs><style>.cls-1{fill:none;stroke:#fff;stroke-linejoin:round;stroke-width:2.85px;}.cls-2{fill:#ed1b2e;}</style></defs><title>rp</title><g id="Layer_2" data-name="Layer 2"><g id="Layer_1-2" data-name="Layer 1"><path d="M131.86,85.74a2.53,2.53,0,1,1-1.68,3.21,2.51,2.51,0,0,1,1.68-3.21m1.41,4.3a2,2,0,1,0-2.44-1.3,1.92,1.92,0,0,0,2.44,1.3m-2-2.93,1-.33c.67-.22,1.12-.13,1.32.45a.71.71,0,0,1-.47,1l1.11.94-.56.18-1-.94-.33.11.38,1.15-.53.18Zm.9.95.47-.16c.3-.1.51-.22.41-.55s-.42-.23-.66-.15l-.45.15Z"></path><path d="M137.46,53.49A22.21,22.21,0,0,0,129,45.85a4.11,4.11,0,0,1,1,.69,10.67,10.67,0,0,0-3.28-1.61c-.42-.25-.83-.48-1.22-.68a3.32,3.32,0,0,1,.71.52l-.12,0A7.22,7.22,0,0,0,124.8,44a18.66,18.66,0,0,0,2.29-4.79,17.77,17.77,0,0,0,.62-5.61L126.4,7a4.15,4.15,0,0,0-.34-1.45,6.62,6.62,0,0,0-5.36-4.07A5,5,0,0,0,116,.13c-.22,0-.48.11-3.55,1.13-1.09.36-1.91.63-2.55.87h-.09l-.06,0,.11,0a9.42,9.42,0,0,0-1,.44,3.27,3.27,0,0,1,.77-.37,5.66,5.66,0,0,0-3,2.09,21.32,21.32,0,0,0-4.89-.17c-3.85.38-9.4,2.34-12.37,6.58a20.18,20.18,0,0,0-2,3.49,13.6,13.6,0,0,0-4.14-2,12.95,12.95,0,0,0-16.41,2.05,8.54,8.54,0,0,0-2.38-.76c-.45-.07-1.43-.21-4.83.77A8.4,8.4,0,0,0,58,11.4a10.38,10.38,0,0,0-5.23-3.08,10.49,10.49,0,0,0-5.6-1.87c-5.23-.24-9.57,3-9.88,7.47a7.08,7.08,0,0,0,.87,3.9l-.77-.28a18.33,18.33,0,0,0-12.77-2.1l.21,0C21,15.95,6.44,20.68,3.64,22.12.57,23.8,0,26.07,0,27.68a9,9,0,0,0,.66,3A3.3,3.3,0,0,0,.81,31l4.25,8.41C9.89,49,18,64.93,18.35,65.74a4.52,4.52,0,0,0,1.52,1.82A6.58,6.58,0,0,0,16,71a5.57,5.57,0,0,0,.07,4.53c0-.08-.07-.16-.1-.25,0,.09.06.17.1.26.44.91.67,1.38.78,1.59,2.47,6,4.83,12.09,7.11,18,3.47,8.92,6.76,17.35,10,24.7a3.28,3.28,0,0,0,.45.73c.21.26,4.06,4.64,5.86,5.23a10.14,10.14,0,0,0,2.11.39,4.13,4.13,0,0,0,2.46-.6c1.43-.87,2.81-2.58,4.94-5.3.88-1.12,1.78-2.28,2.33-2.84a4.17,4.17,0,0,0,.83-1.23,7.77,7.77,0,0,0,.12-5.71,3.93,3.93,0,0,0-.33-.65,53.87,53.87,0,0,1-2.75-5.54L51,104c.47-.13.94-.27,1.52-.42a4.12,4.12,0,0,0,.65-.23c2.5-1.11,5.62-2.49,7.82-5.64l-.16.21a22.72,22.72,0,0,0,3.26-5.36,16.66,16.66,0,0,0,1.74,1.82,17.73,17.73,0,0,0,4.49,4.45,18.73,18.73,0,0,0,11.14,3.66h.1a16.1,16.1,0,0,0,13.15-5.36,31.75,31.75,0,0,0,7.29-13c2,4.56,3.87,8.29,5.73,11.79a3.39,3.39,0,0,0,.44.63c.18.21,4.05,4.43,5.83,4.83l.14,0a10.18,10.18,0,0,0,1.72.15l.36,0a21,21,0,0,1,3,0,17.29,17.29,0,0,0,3.84-.16,5,5,0,0,0,3.32-2,5.29,5.29,0,0,0,.66-4.69l0-.15c-.82-2.45-1.91-6-3-9.4l-.46-1.46a40.42,40.42,0,0,0,5.29-2.15,22.44,22.44,0,0,0,7.68-7c4.6-7.11,4.93-14.72.94-20.93m-94.63,33-1,.25c-.59-1-1.13-2-1.95-3.64a24.18,24.18,0,0,1,4.26-1.24c.05.28.08.51.09.68.17,2-.58,3.74-1.36,3.94M41.08,45.63a37.6,37.6,0,0,0,4.7-7.92L50.51,51.5c-3.43-2-7-4.24-9.43-5.87M79.62,84.2a9.14,9.14,0,0,1-.39-1.69c-.27-2.74.69-5.89,2.73-6.34a3,3,0,0,1,1,0,6.65,6.65,0,0,1,.21,1.74c-.15,3.18-1.79,5.48-3.51,6.26M91.28,58.1c.57,1.47.78,2,.8,2l.52,1.32a22.37,22.37,0,0,0-2.26-.93,25.36,25.36,0,0,0-12.78-3c-6.48.22-12,3.79-15.68,10.08-.05.09-.1.19-.15.28a25.75,25.75,0,0,0-1.39,3.74,20.56,20.56,0,0,0-4.11-3.25L61,63.92l-.2.17a5,5,0,0,0,2.1-4,4.36,4.36,0,0,0-.14-1l0-.14a4.22,4.22,0,0,0-.58-1.2l1.53-.47.14,0a5,5,0,0,0,3-2.72,5.64,5.64,0,0,0,.15-4l-.68-3c.11.09.22.18.34.27a5,5,0,0,0,4.71.48l3.11-.9a6.12,6.12,0,0,0,.76-.21c.21.19,2.37,3,3.45,3.57a5.48,5.48,0,0,0,4.26.38l5.57-1.71.15,0a5.54,5.54,0,0,0,2.64-1.93,11.21,11.21,0,0,0,2.86,2.49,6.6,6.6,0,0,0-2.81,8.25m26.14,8.24-.27.23,0,0c-.49-1.33-1-2.66-1.51-4a20.42,20.42,0,0,1,3.26-2c.3,2.24-.12,4.7-1.45,5.73"></path><path class="cls-1" d="M64,16.77a8,8,0,0,1,3.63,1.94,20.14,20.14,0,0,1,1.28-1.78,9.82,9.82,0,0,1,4.56-3,9.46,9.46,0,0,1,9.72,2.48,5.45,5.45,0,0,1,1.06,3.47s.5,21.42.67,22.15-.83,1-.83,1l-5.58,1.71s-1.09.34-1.27-.41c-.06-.25-.13-.48-.13-.48l-.46-18.43a5.85,5.85,0,0,0-.29-2c-1-3.31-9.34-1.31-8.69,1.94.08.39.53,1.91.53,1.91L71.48,39.4a1.18,1.18,0,0,1-.15,1,1.58,1.58,0,0,1-1,.5L66.69,42a.94.94,0,0,1-.93,0,1.62,1.62,0,0,1-.54-.86l-7-20.65s-.84-2,.65-2.54C58.9,17.95,63,16.62,64,16.77ZM69.49,93c3.89,2.62,5.85,2.75,9.11,3A12,12,0,0,0,88.54,92a26.09,26.09,0,0,0,6.91-14.51c.92-11.71-7.73-16.71-17.86-16.65-5.07.17-9.68,3-12.84,8.43a21,21,0,0,0-1.56,13.11C64,86.61,65.64,90.39,69.49,93ZM72,80.67c-.49-4.72,1.49-10.06,6.15-10.92,4.68-.7,8.38,3,8.33,8.27-.21,5.25-3.53,9.34-7.45,9.75S72.61,85.36,72,80.67ZM102.08,7.43c-3.52.35-7.83,2.1-10,5.19-6.16,8.78-.88,17.16,3.52,19.29a12.21,12.21,0,0,0,8.21,1.28c2.75-.58,4-.73,6.54-2.35,2.06-1.31,2.6-.8,2.55,1.22a8.76,8.76,0,0,1-2,4.26A12,12,0,0,1,99.25,39c-1.31-.4-3.11-1.85-5-2.43A3.17,3.17,0,0,0,90,39.3c0,1.36,1.13,3.76,3.69,5a21.33,21.33,0,0,0,19.88-.63,13.69,13.69,0,0,0,6.41-8,13.69,13.69,0,0,0,.46-4.17L119.11,4.91s-.83-1.9-2.37-1.55c-.52.12-6.09,2-6.08,2a2.88,2.88,0,0,0-2,2.7A22.45,22.45,0,0,0,102.08,7.43Zm-3.9,13c.26-3,2.16-4.48,5.12-5.63,3.44-1.33,6.81.17,7,3.77.15,3-.87,5.31-3.58,6.63C102.72,27.14,97.79,25,98.18,20.43ZM40.91,66.86C34.72,67,30,67.94,22.5,70.17l-.91.27c-3.75,1.17-2.5,3.62-2.5,3.62.62,1.28.82,1.67.82,1.67,6.23,15.18,11.73,30.52,17.16,42.67a3.64,3.64,0,0,0,1.42,1,6,6,0,0,0,1.12.2c1.44-.88,4.71-5.7,6.45-7.49a3.64,3.64,0,0,0,.07-2.52c-1.95-3.14-4-8.6-5.34-10.81,0,0-.07-.45,1.73-.34a29.09,29.09,0,0,0,5.83-1.27c2.33-1,4.57-2,6.1-4.23,3.75-4.69,4.81-9.14,2.6-16.13-.92-3.37-3.92-6.29-7.4-8.05C49.65,68.81,47.31,67.07,40.91,66.86Zm-8.36,11c1.33-.42,5.94-2.49,8.88-2.56,7.61.64,7.78,12.93,2.22,14.36a16.93,16.93,0,0,1-4.86.82c-1.55.31-2.63-2.12-2.63-2.12-1.6-2.72-2.25-3.89-4.71-8.81A1.5,1.5,0,0,1,32.56,77.88Zm82.37-32.23c-1.49.38-5.54,1.62-9.74,3.22s-8.08,3.23-8.08,3.23l-.79.33a3.31,3.31,0,0,0-2,4.39c.61,1.55.8,2,.8,2,7.46,18.88,11.46,27.86,15.52,35.49a2.24,2.24,0,0,0,1.08.64,6.22,6.22,0,0,0,.95.08c3.08-.28,4.43.21,6.57-.16,0,0,1.05,0,.64-1.45-1.3-3.89-3.32-10.54-4.63-14.68,0,0,.08-.43,1.37-.68a40,40,0,0,0,7.17-2.65,18.27,18.27,0,0,0,6.11-5.63c4.48-6.91,3.29-12.66.9-16.38a17.93,17.93,0,0,0-6.94-6.22S118.57,44.8,114.92,45.64ZM109,57.79c1.57-1.64,4.23-2.89,6.18-3.91,6.54-3,9.8,10.77,4.24,15.08a11.26,11.26,0,0,1-5.36,3c-1.85.38-1.89-.45-1.89-.45-1.31-3.7-2.66-7.39-4.27-11.56A2.15,2.15,0,0,1,109,57.79ZM59.83,50.47a.89.89,0,0,1-.55.49l-4,1.22a1,1,0,0,1-.8-.13,1.67,1.67,0,0,1-.62-1L45.14,25.63l0-.08v-.08a1.92,1.92,0,0,1,.29-.88,1.7,1.7,0,0,1,.83-.52l5.93-1.83a1.46,1.46,0,0,1,1.06,0,1.12,1.12,0,0,1,.6.76v0l5.93,26.24A1.68,1.68,0,0,1,59.83,50.47ZM46.34,19.13a6.7,6.7,0,0,1-4.72-2.05,3.92,3.92,0,0,1-1.06-2.92c.18-2.58,3.07-4.55,6.43-4.4a6.71,6.71,0,0,1,4.72,2.06,3.91,3.91,0,0,1,1.06,2.92C52.58,17.32,49.7,19.29,46.34,19.13Zm-21.05-.45h0c-3.37.48-17.63,5.1-20.11,6.38-1.45.79-1.85,1.68-1.84,2.57a6,6,0,0,0,.46,1.91C4.48,31,20.92,63.43,21.34,64.33a1.07,1.07,0,0,0,.89.7l6.28-2.28c.79-.47,1-.87,1-1.24a1.47,1.47,0,0,0-.19-.62L16,33.5a3.28,3.28,0,0,1-.2-1,1.73,1.73,0,0,1,.17-.82,1.26,1.26,0,0,1,.69-.65c1.08-.83,8.7-3.42,9.3-3.51,1.89-.25,3.17.11,3.82,1.08a3.1,3.1,0,0,1,.46,1.7c0,2.26-1.48,5.45-3,8a17.2,17.2,0,0,1-2.19,3.35l.11-.05c-2.48,3-.68,4.74-.1,5.4,2.39,3,16.58,16.49,21,18.3l0,0,0,0c.66.62,1.59,0,1.63,0L55,58.56c.55-.45.6-.68.6-.75a.06.06,0,0,0,0,0c0-.13-.38-.25-.6-.28-5.82-1.73-21.43-11.9-22.78-13.28L32,44l.18-.21c6.14-7.09,8-12.24,7.92-15.87a8.63,8.63,0,0,0-1.18-4.35c-2.58-4.36-9-5.93-13.64-4.93m0,0h0c-3.37.48-17.63,5.1-20.11,6.38-1.45.79-1.85,1.68-1.84,2.57a6,6,0,0,0,.46,1.91C4.48,31,20.92,63.43,21.34,64.33a1.07,1.07,0,0,0,.89.7l6.28-2.28c.79-.47,1-.87,1-1.24a1.47,1.47,0,0,0-.19-.62L16,33.5a3.28,3.28,0,0,1-.2-1,1.73,1.73,0,0,1,.17-.82,1.26,1.26,0,0,1,.69-.65c1.08-.83,8.7-3.42,9.3-3.51,1.89-.25,3.17.11,3.82,1.08a3.1,3.1,0,0,1,.46,1.7c0,2.26-1.48,5.45-3,8a17.2,17.2,0,0,1-2.19,3.35l.11-.05c-2.48,3-.68,4.74-.1,5.4,2.39,3,16.58,16.49,21,18.3l0,0,0,0c.66.62,1.59,0,1.63,0L55,58.56c.55-.45.6-.68.6-.75a.06.06,0,0,0,0,0c0-.13-.38-.25-.6-.28-5.82-1.73-21.43-11.9-22.78-13.28L32,44l.18-.21c6.14-7.09,8-12.24,7.92-15.87a8.63,8.63,0,0,0-1.18-4.35C36.34,19.24,30,17.68,25.28,18.68Z"></path><path class="cls-2" d="M58.9,17.95S63,16.62,64,16.77a8,8,0,0,1,3.63,1.94,20.14,20.14,0,0,1,1.28-1.78,9.82,9.82,0,0,1,4.56-3,9.46,9.46,0,0,1,9.72,2.48,5.45,5.45,0,0,1,1.06,3.47s.5,21.42.67,22.15-.83,1-.83,1l-5.58,1.71s-1.09.34-1.27-.41c-.06-.25-.13-.48-.13-.48l-.46-18.43a5.85,5.85,0,0,0-.29-2c-1-3.31-9.34-1.31-8.69,1.94.08.39.53,1.91.53,1.91L71.48,39.4a1.18,1.18,0,0,1-.15,1,1.58,1.58,0,0,1-1,.5L66.69,42a.94.94,0,0,1-.93,0,1.62,1.62,0,0,1-.54-.86l-7-20.65s-.84-2,.65-2.54m4.29,64.4c.79,4.27,2.46,8.05,6.31,10.7s5.85,2.75,9.11,3A12,12,0,0,0,88.54,92a26.09,26.09,0,0,0,6.91-14.51c.92-11.71-7.73-16.71-17.86-16.65-5.07.17-9.68,3-12.84,8.43a21,21,0,0,0-1.56,13.11M79,87.77c-3.93.28-6.39-2.41-7-7.09-.49-4.72,1.49-10.06,6.15-10.92,4.68-.7,8.38,3,8.33,8.27-.21,5.25-3.53,9.34-7.45,9.75M108.62,8a22.45,22.45,0,0,0-6.54-.61c-3.52.35-7.83,2.1-10,5.19-6.16,8.78-.88,17.16,3.52,19.29a12.21,12.21,0,0,0,8.21,1.28c2.75-.58,4-.73,6.54-2.35,2.06-1.31,2.6-.8,2.55,1.22a8.76,8.76,0,0,1-2,4.26A12,12,0,0,1,99.25,39c-1.31-.4-3.11-1.85-5-2.43A3.17,3.17,0,0,0,90,39.3c0,1.36,1.13,3.76,3.69,5a21.33,21.33,0,0,0,19.88-.63,13.69,13.69,0,0,0,6.41-8,13.69,13.69,0,0,0,.46-4.17L119.11,4.91s-.83-1.9-2.37-1.55c-.52.12-6.09,2-6.08,2a2.88,2.88,0,0,0-2,2.7M106.7,25.21c-4,1.93-8.92-.22-8.53-4.78.26-3,2.16-4.48,5.12-5.63,3.44-1.33,6.81.17,7,3.77.15,3-.87,5.31-3.58,6.63m-57,43.6s-2.34-1.74-8.74-1.95C34.72,67,30,67.94,22.5,70.17l-.91.27c-3.75,1.17-2.5,3.62-2.5,3.62.62,1.28.82,1.67.82,1.67,6.23,15.18,11.73,30.52,17.16,42.67a3.64,3.64,0,0,0,1.42,1,6,6,0,0,0,1.12.2c1.44-.88,4.71-5.7,6.45-7.49a3.64,3.64,0,0,0,.07-2.52c-1.95-3.14-4-8.6-5.34-10.81,0,0-.07-.45,1.73-.34a29.09,29.09,0,0,0,5.83-1.27c2.33-1,4.57-2,6.1-4.23,3.75-4.69,4.81-9.14,2.6-16.13-.92-3.37-3.92-6.29-7.4-8.05M31.45,79.57a1.5,1.5,0,0,1,1.1-1.69c1.33-.42,5.94-2.49,8.88-2.56,7.61.64,7.78,12.93,2.22,14.36a16.93,16.93,0,0,1-4.86.82c-1.55.31-2.63-2.12-2.63-2.12-1.6-2.72-2.25-3.89-4.71-8.81m92.43-32.39s-5.32-2.38-9-1.54c-1.49.38-5.54,1.62-9.74,3.22s-8.08,3.23-8.08,3.23l-.79.33a3.31,3.31,0,0,0-2,4.39c.61,1.55.8,2,.8,2,7.46,18.88,11.46,27.86,15.52,35.49a2.24,2.24,0,0,0,1.08.64,6.22,6.22,0,0,0,.95.08c3.08-.28,4.43.21,6.57-.16,0,0,1.05,0,.64-1.45-1.3-3.89-3.32-10.54-4.63-14.68,0,0,.08-.43,1.37-.68a40,40,0,0,0,7.17-2.65,18.27,18.27,0,0,0,6.11-5.63c4.48-6.91,3.29-12.66.9-16.38a17.93,17.93,0,0,0-6.94-6.22m-16,12.8a2.15,2.15,0,0,1,1.1-2.19c1.57-1.64,4.23-2.89,6.18-3.91,6.54-3,9.8,10.77,4.24,15.08a11.26,11.26,0,0,1-5.36,3c-1.85.38-1.89-.45-1.89-.45-1.31-3.7-2.66-7.39-4.27-11.56M59.77,49.27a1.68,1.68,0,0,1,.06,1.2.89.89,0,0,1-.55.49l-4,1.22a1,1,0,0,1-.8-.13,1.67,1.67,0,0,1-.62-1L45.14,25.63l0-.08v-.08a1.92,1.92,0,0,1,.29-.88,1.7,1.7,0,0,1,.83-.52l5.93-1.83a1.46,1.46,0,0,1,1.06,0,1.12,1.12,0,0,1,.6.76v0l5.93,26.24m-7-34.53c-.18,2.58-3.06,4.56-6.43,4.4a6.7,6.7,0,0,1-4.72-2.05,3.92,3.92,0,0,1-1.06-2.92c.18-2.58,3.07-4.55,6.43-4.4a6.71,6.71,0,0,1,4.72,2.06,3.91,3.91,0,0,1,1.06,2.92M25.28,18.68h0c-3.37.48-17.63,5.1-20.11,6.38-1.45.79-1.85,1.68-1.84,2.57a6,6,0,0,0,.46,1.91C4.48,31,20.92,63.43,21.34,64.33a1.07,1.07,0,0,0,.89.7l6.28-2.28c.79-.47,1-.87,1-1.24a1.47,1.47,0,0,0-.19-.62L16,33.5a3.28,3.28,0,0,1-.2-1,1.73,1.73,0,0,1,.17-.82,1.26,1.26,0,0,1,.69-.65c1.08-.83,8.7-3.42,9.3-3.51,1.89-.25,3.17.11,3.82,1.08a3.1,3.1,0,0,1,.46,1.7c0,2.26-1.48,5.45-3,8a17.2,17.2,0,0,1-2.19,3.35l.11-.05c-2.48,3-.68,4.74-.1,5.4,2.39,3,16.58,16.49,21,18.3l0,0,0,0c.66.62,1.59,0,1.63,0L55,58.56c.55-.45.6-.68.6-.75a.06.06,0,0,0,0,0c0-.13-.38-.25-.6-.28-5.82-1.73-21.43-11.9-22.78-13.28L32,44l.18-.21c6.14-7.09,8-12.24,7.92-15.87a8.63,8.63,0,0,0-1.18-4.35c-2.58-4.36-9-5.93-13.64-4.93"></path><path d="M103.7,32.59l.69-.14A13.64,13.64,0,0,0,110,30.33a3.21,3.21,0,0,1,2.49-.74,1.34,1.34,0,0,0-.57-.67c-.78-.44-1.8.09-2.7.66a13.61,13.61,0,0,1-5.65,2.12l-.69.14a11.63,11.63,0,0,1-7.82-1.23,8.5,8.5,0,0,1-1.85-1.27,9.3,9.3,0,0,0,2.62,2,11.63,11.63,0,0,0,7.82,1.24M70.28,40.33a1,1,0,0,0,.59-.29.59.59,0,0,0,0-.46L67.58,27.44l-.54-2c-.4-2,1.71-3.52,4-4.1a6.31,6.31,0,0,1,4.77.41c-1-1.5-3.46-1.69-5.54-1.16-2.28.58-4.4,2.07-4,4.1l.54,2,3.32,12.14a.59.59,0,0,1,0,.46,1,1,0,0,1-.59.29h-.07l-3.69,1.07h0l.09.27a1.08,1.08,0,0,0,.31.55c.07.05.23,0,.28,0l.05,0,.07,0,3.69-1.07ZM70.58,80v0c.4,2.86,1.44,5,3,6.26a10.36,10.36,0,0,1-2.24-5.51v0c-.53-5,1.59-10.64,6.65-11.59a7.43,7.43,0,0,1,6,1.65,7.61,7.61,0,0,0-.7-.69,7.43,7.43,0,0,0-6.09-1.71c-5.06.94-7.17,6.54-6.65,11.59M83.12,41.71l-5.44,1.67c0,.24,0,.39,0,.4l.12.42a1,1,0,0,0,.5,0l5.58-1.71c.19-.07.43-.25.42-.32-.17-.73-.57-17.24-.69-22.28a4.9,4.9,0,0,0-.9-3.07,8.28,8.28,0,0,0-.72-.69,5,5,0,0,1,.85,3c.12,5,.52,21.54.69,22.27,0,.07-.23.25-.42.32M30.91,79.84l0-.07,0-.08a1.91,1.91,0,0,1,0-.32,2.09,2.09,0,0,1,1.54-2.06l1.31-.48c2-.77,5.37-2.05,7.75-2.11a6.71,6.71,0,0,1,3.82,1.52A6.64,6.64,0,0,0,40.65,74c-2.39.06-5.74,1.34-7.75,2.11l-1.31.48a2.09,2.09,0,0,0-1.54,2.06,1.71,1.71,0,0,0,0,.32l0,.08,0,.07c2.39,4.78,3.07,6,4.72,8.83a5.6,5.6,0,0,0,1.54,2,6.36,6.36,0,0,1-.77-1.23c-1.65-2.8-2.33-4-4.72-8.83M98.76,24.39a5.46,5.46,0,0,1-1.19-4h0c.31-3.66,3-5.16,5.5-6.14a6.28,6.28,0,0,1,5.66.32l.28.21a4.59,4.59,0,0,0-1.06-1,6.28,6.28,0,0,0-5.66-.32c-2.54,1-5.19,2.49-5.5,6.14a5.38,5.38,0,0,0,2,4.76m20.62,11.13a12.83,12.83,0,0,0,.45-3.62c0-.21,0-.33,0-.33l-1.31-26.5a2.41,2.41,0,0,0-.92-1c.07.11.13.21.15.27.07,1.38,1.31,26.5,1.31,26.5s0,.13,0,.33a12.85,12.85,0,0,1-.44,3.62,13.17,13.17,0,0,1-6.11,7.63A20.69,20.69,0,0,1,93.17,43a6.61,6.61,0,0,1-1.34-.88,6.58,6.58,0,0,0,2.11,1.63,20.68,20.68,0,0,0,19.32-.62,13.16,13.16,0,0,0,6.11-7.63m-7.79,36a.82.82,0,0,0,0,.14v0Zm-2.87-14.3-.1.07,0,0ZM110.85,71a1.14,1.14,0,0,0,.42.63,1.48,1.48,0,0,0,.38.21l0-.1c-1.37-3.9-2.73-7.56-4.26-11.52l0,0V60.1a2.76,2.76,0,0,1,1.29-2.76,22,22,0,0,1,5.6-3.63l.72-.37a4.4,4.4,0,0,1,4.86.56,4.5,4.5,0,0,0-5.64-1.31l-.71.37a22,22,0,0,0-5.6,3.63l.1-.07-.13.1,0,0a2.76,2.76,0,0,0-1.29,2.76v.05l0,0c1.53,4,2.88,7.62,4.25,11.52a.87.87,0,0,1,0-.15Zm0,0v0h0v0m19.46-17.24a18.53,18.53,0,0,0-2.91-3.39A19.33,19.33,0,0,1,129.54,53c1.73,2.69,3.91,8.3-.89,15.71a17.87,17.87,0,0,1-5.88,5.42,39.68,39.68,0,0,1-7,2.6c-1.48.29-1.8.86-1.85,1.17l0,.15,1.65,5.29,3,9.51c.12.43,0,.57,0,.6s-.13.07-.19.08a12.9,12.9,0,0,1-2.91.1,24.94,24.94,0,0,0-3.57,0l-.82-.06-.15-.05.21.39a1.51,1.51,0,0,0,.72.41l.81.06a25,25,0,0,1,3.57,0,12.9,12.9,0,0,0,2.91-.1c.06,0,.16,0,.19-.08s.09-.17,0-.6l-3-9.51-1.66-5.29,0-.15c.06-.31.38-.88,1.85-1.17a39.71,39.71,0,0,0,7-2.6,17.86,17.86,0,0,0,5.88-5.42c4.8-7.41,2.62-13,.89-15.71m-77.36,18a10.69,10.69,0,0,1,2.75,4.53,21.19,21.19,0,0,1,1.11,6.07c.05,3.45-1.12,6.39-3.63,9.53-1.44,2.06-3.56,3-5.81,4l-1.57.43a19.3,19.3,0,0,1-4,.8c-1.16-.07-1.83.06-2.16.42a.78.78,0,0,0-.21.53.69.69,0,0,0,0,.09l0,.13.07.11a44.72,44.72,0,0,1,2.21,4.51,59.94,59.94,0,0,0,3.09,6.21,2.32,2.32,0,0,1,.15.81,3.31,3.31,0,0,1-.2,1.15c-.71.75-1.61,1.89-2.57,3.12a28.87,28.87,0,0,1-3.52,4l-.75-.13a1.72,1.72,0,0,1-.38-.19l.06.13a2.87,2.87,0,0,0,1.1.81l.75.13A28.74,28.74,0,0,0,43,115c1-1.23,1.86-2.37,2.57-3.12a3.35,3.35,0,0,0,.2-1.15,2.3,2.3,0,0,0-.15-.81,60.18,60.18,0,0,1-3.08-6.21,44.71,44.71,0,0,0-2.21-4.51L40.22,99l0-.13a.73.73,0,0,1,0-.09.78.78,0,0,1,.21-.53c.33-.36,1-.5,2.16-.42a19.33,19.33,0,0,0,4-.81l1.57-.43c2.25-1,4.37-1.95,5.81-4,2.51-3.14,3.68-6.08,3.63-9.53A21.26,21.26,0,0,0,56.47,77a11.25,11.25,0,0,0-3.53-5.28m.3-48.6c-.1-.27-.12-.3-.31-.41a.71.71,0,0,0-.39,0c.7,3.08,5.85,25.9,5.87,26a1.46,1.46,0,0,1,.11.49.58.58,0,0,1,0,.23.26.26,0,0,1-.17.15l-3.91,1.19v0a1.19,1.19,0,0,0,.38.69.42.42,0,0,0,.33.05l4-1.21a.27.27,0,0,0,.17-.15.58.58,0,0,0,0-.24,1.47,1.47,0,0,0-.11-.49c0-.09-6-26.33-6-26.33M16.42,30.45l-.09,0-.07,0ZM31.28,44.18l-.12-.12.55-.63c5.22-6,7.84-11.23,7.77-15.46a8,8,0,0,0-1.1-4,8.33,8.33,0,0,0-1.77-2.08,7.8,7.8,0,0,1,2.09,5.38c.06,4.23-2.55,9.43-7.77,15.46l-.55.63.59.6.3.27M90.85,65.71c2.49,2.74,3.57,6.41,3.22,10.92a25.64,25.64,0,0,1-6.74,14.15,11.32,11.32,0,0,1-9.47,3.86c-3.25-.21-5-.33-8.79-2.86a13.38,13.38,0,0,1-1.46-1.18,13.25,13.25,0,0,0,2.23,1.93c3.75,2.52,5.54,2.64,8.79,2.86a11.32,11.32,0,0,0,9.46-3.86,25.63,25.63,0,0,0,6.74-14.16c.36-4.56-.76-8.28-3.31-11-.21-.23-.45-.43-.68-.64M46.37,18.53c3,.14,5.63-1.58,5.79-3.83a3.31,3.31,0,0,0-.9-2.47,4.82,4.82,0,0,0-.67-.61,3.28,3.28,0,0,1,.8,2.33c-.16,2.25-2.76,4-5.79,3.83A6.45,6.45,0,0,1,42,16.52l.11.15a6.11,6.11,0,0,0,4.3,1.85M29.45,27.46c-.79-1.13-2.26-1.57-4.37-1.29-.56.08-8.11,2.6-9.51,3.58l.08,0-.16.09.07,0a1.92,1.92,0,0,0-.93.9,2.34,2.34,0,0,0-.24,1.1s.23,1.2.26,1.27L28,60.42l.12.35c0,.17-.25.42-.68.68l-5.82,2.11.25.51c.12.25.23.3.31.32l6-2.19c.43-.26.68-.51.68-.68l-.12-.35L15.43,33.77c0-.07-.26-1.27-.26-1.27a2.31,2.31,0,0,1,.24-1.1,1.9,1.9,0,0,1,.92-.9c1.39-1,9-3.5,9.52-3.58a5.21,5.21,0,0,1,3.6.54M46.37,64.78l.12.09,0,0c.31.29.86-.08.88-.09l-.09.17c.43-.5,1.93-1.91,7.23-6.86l.08-.08c-.35-.11-.73-.25-1.14-.41-5.05,4.73-6.52,6.1-6.94,6.6l.09-.17s-.57.38-.88.09l0,0L45.6,64l-.09,0c-2.93-1.21-10.59-8-15.81-13C34.9,56,43.2,63.47,46.28,64.74Z"></path></g></g></svg> 