<?xml version="1.0" encoding="UTF-8"?> <!-- Generator: Adobe Illustrator 19.0.0, SVG Export Plug-In . SVG Version: 6.00 Build 0) --> <svg xmlns="http://www.w3.org/2000/svg" xmlns:xlink="http://www.w3.org/1999/xlink" version="1.1" id="Layer_1" x="0px" y="0px" viewBox="0 0 512 512" style="enable-background:new 0 0 512 512;" xml:space="preserve"> <g> <g> <path d="M476.938,416.185L375.243,261.907c25.129-28.781,38.856-65.238,38.856-103.809c0-42.229-16.445-81.932-46.305-111.793 C337.932,16.445,298.149,0,255.92,0c-42.229,0-81.852,16.445-111.713,46.305c-29.86,29.861-46.305,69.563-46.305,111.793 c0,38.571,13.726,75.028,38.856,103.809L35.062,416.185c-5.187,7.869-4.589,17.414,1.338,21.321l110.49,72.832 c5.926,3.906,14.935,0.693,20.122-7.175L256,368.163l88.989,134.999c5.187,7.869,14.196,11.081,20.122,7.175l110.49-72.832 C481.526,433.599,482.125,424.054,476.938,416.185z M133.346,464.971c-2.383,3.616-7.247,4.616-10.863,2.232l-36.82-24.271 c-3.615-2.384-4.615-7.247-2.231-10.863l91.191-138.343c13.743,8.286,28.637,14.378,44.252,18.115l7.705,11.69L133.346,464.971z M255.999,199.825l-42.085,22.764c-2.224,1.202-4.941,1.023-6.987-0.464c-2.046-1.486-3.056-4.015-2.6-6.501l8.643-47.06 l-34.654-32.992c-1.829-1.744-2.498-4.384-1.716-6.788c0.781-2.405,2.874-4.147,5.38-4.481l47.428-6.322l20.668-43.153 c1.092-2.281,3.396-3.732,5.924-3.732c2.528,0,4.833,1.451,5.924,3.732l20.668,43.153l47.428,6.322 c2.507,0.334,4.599,2.076,5.38,4.481c0.781,2.405,0.113,5.045-1.719,6.788l-34.654,32.992l8.643,47.06 c0.457,2.487-0.554,5.015-2.6,6.501c-2.046,1.486-4.763,1.667-6.987,0.464L255.999,199.825z M426.337,442.932l-36.82,24.271 c-3.615,2.383-8.479,1.384-10.863-2.232l-99.207-150.502c20.591-3.051,40.211-10.1,57.918-20.758l91.203,138.358 C430.951,435.684,429.952,440.549,426.337,442.932z"></path> </g> </g> <g> </g> <g> </g> <g> </g> <g> </g> <g> </g> <g> </g> <g> </g> <g> </g> <g> </g> <g> </g> <g> </g> <g> </g> <g> </g> <g> </g> <g> </g> </svg> 